/* XPM */
static char *_a3ad48b7aad4825e9a7e0781693d76dBOSIzZZjScAGsEST[] = {
/* columns rows colors chars-per-pixel */
"64 64 238 2 ",
"   c #010101",
".  c #0E090A",
"X  c #1C1516",
"o  c #1A0F11",
"O  c #24181B",
"+  c #241D20",
"@  c #2B2224",
"#  c #342A2D",
"$  c #433338",
"%  c #4F3F45",
"&  c #59474E",
"*  c #68545B",
"=  c #6E504F",
"-  c #755B63",
";  c #796068",
":  c #8B5D3F",
">  c #976E3A",
",  c #9D733C",
"<  c #997238",
"1  c #8D6736",
"2  c #A1763E",
"3  c #A4793E",
"4  c #AA7E3D",
"5  c #8B5846",
"6  c #975A4B",
"7  c #99475C",
"8  c #995754",
"9  c #8A4C58",
"0  c #A5565A",
"q  c #9A6A47",
"w  c #9E7441",
"e  c #9D774D",
"r  c #9A6859",
"t  c #8E694D",
"y  c #A17641",
"u  c #A57A42",
"i  c #AA7D44",
"p  c #AA7D4A",
"a  c #A3774B",
"s  c #A36454",
"d  c #A8695C",
"f  c #A97857",
"g  c #AF7055",
"h  c #8D5066",
"j  c #AA4B67",
"k  c #B44C6B",
"l  c #A95366",
"z  c #B85D69",
"x  c #BD4E73",
"c  c #B64B73",
"v  c #A95A76",
"b  c #BC5372",
"n  c #B8597B",
"m  c #986568",
"M  c #9B687B",
"N  c #8B6C6F",
"B  c #A66A68",
"V  c #AA7465",
"C  c #B67965",
"Z  c #A66774",
"A  c #B6687D",
"S  c #AA7674",
"D  c #B77677",
"F  c #B26D6D",
"G  c #C34D76",
"H  c #C94D78",
"J  c #CA5376",
"K  c #CE5579",
"L  c #C35578",
"P  c #D2557B",
"I  c #D7587D",
"U  c #D8587D",
"Y  c #C5556E",
"T  c #C17A79",
"R  c #CB6879",
"E  c #AC813E",
"W  c #AE8146",
"Q  c #AE8249",
"!  c #B28346",
"~  c #B3854A",
"^  c #B5894C",
"/  c #BB8C4D",
"(  c #B8874F",
")  c #A88358",
"_  c #BC8E51",
"`  c #B68758",
"'  c #BE9153",
"]  c #BD925F",
"[  c #BE904E",
"{  c #B98567",
"}  c #B08C69",
"|  c #C18F4E",
" . c #C2924E",
".. c #C78D58",
"X. c #C39454",
"o. c #C99654",
"O. c #CB9A55",
"+. c #C39659",
"@. c #C6995A",
"#. c #CC9C5B",
"$. c #C69856",
"%. c #D29D56",
"&. c #D19F5A",
"*. c #D1965D",
"=. c #CEA15D",
"-. c #D3A25D",
";. c #D9A55D",
":. c #DBA95D",
">. c #D5A256",
",. c #C79965",
"<. c #C88676",
"1. c #CEA262",
"2. c #D4A563",
"3. c #D9A761",
"4. c #D6A866",
"5. c #DBA965",
"6. c #D6A969",
"7. c #DCAD6A",
"8. c #D4A56B",
"9. c #DEB16E",
"0. c #DDB474",
"q. c #DEB97A",
"w. c #D6AE74",
"e. c #E2AD64",
"r. c #E1AF6A",
"t. c #E5B065",
"y. c #E3B26D",
"u. c #E9B56C",
"i. c #EEB96C",
"p. c #E4B573",
"a. c #E8B772",
"s. c #E6B976",
"d. c #EABA75",
"f. c #E5BA7A",
"g. c #EABE7E",
"h. c #EABC7B",
"j. c #E0B778",
"k. c #EDC17E",
"l. c #EAC17A",
"z. c #F1C17C",
"x. c #977E88",
"c. c #AE6B85",
"v. c #A56F82",
"b. c #B46C85",
"n. c #BC6B85",
"m. c #BD6E8B",
"M. c #B76886",
"N. c #A97587",
"B. c #BC728B",
"V. c #B57489",
"C. c #B87991",
"Z. c #D95984",
"A. c #C65F85",
"S. c #C66888",
"D. c #C4738C",
"F. c #C57789",
"G. c #DE6996",
"H. c #C57492",
"J. c #CC7493",
"K. c #C87A95",
"L. c #D37596",
"P. c #D37996",
"I. c #D57A9B",
"U. c #DB7C9D",
"Y. c #D67699",
"T. c #D0698C",
"R. c #E2799C",
"E. c #E26690",
"W. c #DC7EA2",
"Q. c #D67EA1",
"!. c #E37EA2",
"~. c #EC7AA3",
"^. c #F178A6",
"/. c #E15C89",
"(. c #A7838B",
"). c #B48C9C",
"_. c #B78A9A",
"`. c #B8949F",
"'. c #AD8793",
"]. c #BE91A2",
"[. c #9C808D",
"{. c #C9849B",
"}. c #D7819C",
"|. c #E5BE81",
" X c #E9BF81",
".X c #EABF81",
"XX c #DC83A2",
"oX c #D789A5",
"OX c #C39BAA",
"+X c #C798A9",
"@X c #D397AC",
"#X c #C99EB1",
"$X c #D79DB3",
"%X c #C08FA1",
"&X c #E582A3",
"*X c #E983A6",
"=X c #E583A9",
"-X c #EB85A9",
";X c #E889AB",
":X c #F186AB",
">X c #F189AC",
",X c #E899B4",
"<X c #EE8EB0",
"1X c #CCA2B2",
"2X c #CEAAB8",
"3X c #D3A4B4",
"4X c #D4ABB9",
"5X c #DCACBE",
"6X c #D6A5B7",
"7X c #C8A0AD",
"8X c #E6A7BC",
"9X c #E5C082",
"0X c #EAC082",
"qX c #EDC182",
"wX c #EAC386",
"eX c #ECC384",
"rX c #EBC589",
"tX c #EEC98C",
"yX c #E7C488",
"uX c #F1C483",
"iX c #F1C88A",
"pX c #EECB91",
"aX c #DDB4C2",
"sX c #DFB9C6",
"dX c #DDAFC0",
"fX c #E3AEC1",
"gX c #E8ADC3",
"hX c #E4B2C4",
"jX c #EAB3C6",
"kX c #E1B9C6",
"lX c #ECB5C9",
"zX c #E4BBC9",
"xX c #ECBACC",
"cX c #E4B4C8",
"vX c #F3B9CD",
"bX c #F3B2C8",
"nX c #E9C1CE",
"mX c #F5C3D5",
/* pixels */
"9Xf.9XyXyXrXpXpXtXpXtXyXrXrXrXpXpXtXiXiXeXf.f.f.s.s.h.g.eXrXiXrXeXeXg.g.g.f.f.h.p.f.f.p.s.f.p.p.p.p.7.9.y.7.6.4.6.7.6.6.6.6.6.4.",
"f.q.9XwXtXyXyXtXyX|.wXyXwXyXrXeXeX0X0X XeXeXeXrXl.g.g.f.f.g.f.f.f.g.g.g.g.g.g.g.h.p.p.p.s.p.p.y.y.7.y.7.7.6.7.y.6.6.6.6.4.2.2.6.",
"q.|.9XyXyXyXyXtXrXrXrXtXwXwXwXwXwXeX Xg.g.g.f.h.g.eXeXeX0XeXg.g.g.h.p.j.p.f.h.h.h.g.g.h.p.p.p.r.y.9.7.7.7.6.6.6.6.6.6.6.6.2.6.2.",
"9X9XwXyXwXwXyXyX|.|.0XrXrXrX0X X X X0X0X Xg.g.g.h.j.f.f.g.g.g.eXg.g.eXeXeXeXg.h.p.j.j.p.p.p.p.6.7.6.7.7.7.y.7.6.6.4.2.2.6.4.2.4.",
"q.j.|.tXtX9X|.rXtXyXwXeX0Xg.0XeX0Xg.j.f.f.f.h.g.0XeXeX0XeXg.h.p.j.p.p.p.p.p.h.h.h.f.f.p.p.p.p.9.y.y.y.6.6.5.2.6.6.6.6.6.6.2.1.1.",
"|.9Xf.q.|.|.|.f.q.j.j.f. X Xg.f.g.|.g.0Xg.f.j.j.p.p.f.g.h.f.g. XeXeXeX.Xg.g.g.h.p.p.p.p.j.0.6.6.6.6.5.6.6.6.7.6.2.1.2.2.2.2.2.6.",
"q.j.yXtXwX9XwXrXwX0XwXrXwXwXeX0Xf.f.f.j.f.g.g.eXeXg.f.f.f.f.p.9.7.9.p.f.p.p.p.d.h.h.h.p.p.p.d.p.p.p.y.7.5.5.4.4.6.6.6.6.2.2.2.2.",
"0X9Xq.q.q.j.j.0.0.0.7.j.s.f.j.j.j.f.g.g.f.j.p.p.s.h.h.h.g.h.g.eXeXeXuXg.h.p.g.h.p.p.p.p.y.7.6.2.2.4.2.4.4.5.5.6.6.6.2.2.2.2.2.1.",
"j.|.wX0X9X X0XyXrXrXiXw.V { f.eXg.j.p.j.f.g.f.f.f.h.h.p.s.p.p.p.p.y.6.6.p.p.p.p.p.p.p.h.h.h.d.p.p.d.p.p.y.7.5.2.#.@.1.2.2.,.1.2.",
"j.q.0.0.9.6.7.9.9.9.f 7 G c { s.f.h.g.g.f.s.s.s.p.p.p.p.p.p.p.p.9.h.k.eXg.h.g.h.p.p.y.6.4.4.5.5.6.2.#.#.#.2.2.4.6.y.y.7.6.6.6.1.",
"f.g.eXeXl.rXwXf.l.f j I P P d 9.0.0.7.9.p.p.j.p.j.h.g.g.k.k.g.uXuXuXd.p.p.y.7.7.9.p.p.h.h.h.p.y.9.p.p.d.a.y.7.6.4.#.+.' ' ' +.@.",
"1.4.6.6.6.0.j.s.{ j I K K K B k.g.g.g.f.p.p.p.h.f.j.p.7.5.6.6.5.4.4.5.6.6.p.g.uXk.h.p.7.5.4.4.7.7.7.4.2.#.#.2.4.5.5.6.7.y.7.7.7.",
"0Xf.j.j.0.6.6.9.d H K K K K s 2.6.9.p.7.6.7.p.s.p.7.y.p.p.p.p.p.p.g.eXuXuXg.y.2.4.5.7.p.p.p.a.p.5.2.2.1.7.a.7.2.#.+.+.+.@.+.+.' ",
"h.g.l.eXrXl.9.7.,.l P K K H V qXg.s.p.h.eXz.d.p.h.g.z.h.h.h.h.h.s.p.y.7.7.y.p.d.k.z.h.p.7.7.5.5.y.h.d.d.p.-.@.4.7.7.6.2.#.#.2.2.",
"#.1.2.4.6.p.j.0.l.C H K P G f 9.4.4.2.2.2.6.7.6.4.2.2.2.2.2.2.4.7.p.d.d.p.y.7.6.5.2.4.7.p.p.p.p.7.2.-.#.-.5.y.r.#.@.@.#.5.6.2.@.",
"6.7.7.6.1.=.s j s z P K P x { d.h.h.h.h.f.h.h.g.h.h.s.p.p.s.p.p.d.p.y.y.r.6.6.7.p.p.p.y.7.5.2.@.@.@.#.#.2.-.+.X.2.6.2.@.' @.2.2.",
"k.k.k.g.k.1.7 Z.K P P K P k ,.y.2.4.6.y.p.7.6.6.7.d.k.h.h.h.h.d.d.p.p.p.h.h.h.h.h.p.7.y.y.y.7.7.p.d.d.d.p.7.2.6.u.2.2.5.7.5.+.' ",
"1.2.2.6.a.] k I K K K K P j p 2.1.1.1.1.2.4.6.9.9.4.-.-.-.2.2.2.5.7.a.5.-.-.2.-.-.#.#.#.#.2.3.5.5.5.3.2.2.2.5.7.@.+._ _ / _ +.+.",
"@.@.+.+.#.q x P K K K K P c ,.z.h.h.h.h.h.h.k.h.h.h.p.p.y.6.5.;.V ) a ] 6.1.2.4.y.d.h.d.d.p.p.r.2.O.+.X.X.X._ _ -.7.5.6.4.7.5.5.",
"s.p.6.4.1.t H P K K K K P n { 7.6.6.5.5.5.4.2.2.6.y.d.y.y.d.0.{ c.m m 7.z.h.z.k.h.p.7.2.-.-.-.-.2.4.5.7.y.r.6.2.#._ _ X.#.@.' _ ",
"7.p.p.p.l.C H P K K K K J A.D X.@.@.#.#.#.@.4.4.,.` r Z Z F Z Q.&XW.K.S ` 7.7.5.2.#.@.#.#.#.2.5.y.u.y.u.y.r.7.5.5.3.' +._ ~ ~ ^ ",
"' @.@.@.-.f G P K K K K J T.F.,.9.p.d.a.p.h.,.= h c.W.;X-X=X*X*X&X&X!.M t -.#.@.#.#.6.a.d.d.a.y.2.o.o.@.o.X.' X.^ 5 8 f 7.5.5.5.",
"#.' _ +.@.` b P K K K K J S.}.8.d.7.5.6.u.,.(.#XOXM *X&X&X&X&X&X&X&X&X&XD e =.u.a.h.d.y.3.-.-.2.5.2.@.X.' _ X./ = c Z.7 u #.@.$.",
"1.6.6.6.p.6.z P K K P P J S.=X{ O.X.+.#.~ `.mXvXvX_.J.-X&X&X&X&X&X&X&X&X-XK.m 2.a.5.2.#.#.@.+.o.X.#.5.y.y.y.y.5 G I P G 5 ' Q Q ",
"7.9.9.6.@.$.q L P K K P J S.:XD +.4.6._ (.hXN N jX6XK.*X&X&X&X&X*X&X&X&X&X-X!.m Q #.@.@.@.@.=.2.2.-.@.O.@.;.a j I J K J 6 -.#.+.",
"' ' _ _ ' @.^ 9 P K K P J S.-XK.] d.y.} #X@     N vXoX&X&X&X&XI.I.&X&X&X&X&X*X;Xm Q @.@.5.u.d.a.y.r.5.2.-.~ 7 Z.K P J J 8 X.@.-.",
"~ _ 1.7.p.p.d.f h P P K K L &X=Xm =.~ ].&     & & hX,X&X*X&XQ.D.m.XX&X&X&X&XP.-XW.B y.y.u.r.2.#.@.@.@.@.-.s G P P P K H s 5.+.~ ",
"4.2.=.2.#.@.@.#.r v x K P L XX:Xb.W e 4XO     * & 6X,XP.K.C.C.B.n.U.*X&X!.<X'.A >XZ ` y.2.#.@.o.+._ / _ u j P P P K K H 6 / ' @.",
"2.6.#.~ Q ~ ^ X./ r M.b G x Y.-XQ.q S cXO       X 4X$X6XaXsXaX4X`.V.U.*X&X8XcXN.Z H.t -.o.X.X._ ^ _ @.O.d K K K K K P G 6 ^ _ &.",
"' o.2.2.@.#.2.@.o.W r K.L.n n.*X-Xm V.mX*       @ 4X4XzXzXzXzXzXnX2XC.R.8XcXlX6Xx.M m X._ _ _ o.2.y.y.C c P K K K K P k p 3.#.X.",
"^ ' +.2.y.y.7.y.5.7.5.f D.;XP.P.>Xb.H.8XhX& .   & aXzXnXkXzXkXkXkXxX4X@XlX5X- O X x.v.Q o.2.r.u.i.#.D n P P P K K K P j ' &.X.' ",
"' @.@.@.o.+.+.-.r.7.2.o.u F K.I.=X&X!.;X,XlX1X).5X$X* `.nXkXzXkXkXzXsX6XlX$ - %   $ 5X,.u.u.u.;.` F.S.J P P P K K K K 6 W Q Q p ",
"7.5.=._ ~ _ ' X./ / @.5.y.5.,.<.<.P.&Xn.U.*X<X,X;X-XO @ nXcXkXzXnXsXOX8X;   # .   + 2X,.5.;.[ d I.Q.b P P P P K K P x : Q Q Q Q ",
"_ ~ ~ ^ ' @.-.#.2.5.7.5.2.2.;.-.O.f W.A b.!.&XY.I.:Xb.o 2XzXsXnX* X +X7X          $ aXf >.p Z &X*Xn J K K K K K K P 0 ' #.#.-.#.",
"+.' o.2.y.y.7.5.-.o.X.' X.X._ _ o.p J.<X$X{.I.W.&X!.>Xb.+XnXnXx.o h 8X2XO         ).8Xa u A =X*XS.G P K K K K K U k q ;.-.2.#.#.",
"2.7.7.4.' ^ ~ ~ ~ ^ ^ / _ / _ / _ / V XXbXcX6X@X{.C.m.B.c.N.oXH.XX>XU.gX4X& @ $ (.vX{.q D.-X-XD.x P K P P K K I L 5 ~ ~ / _ ^ ~ ",
"+.o._ o.+.+.@.#.#.#.&.-.-.5.5.5.-.#.X.V }.lXlXcXhXfX6X3X+X(.v.J.&X*XP.}.,XvXcXlXvX,Xn.B.:X-XH.b P P J b K P P x 5 y p i u u u u ",
"Q ^ _ @.2.5.3.5.r.y.u.u.u.y.7.7.u.u.u.5.` D $XlXhXjXfX%X5XxXhX].V.K.!.&X&X&X<X,XXX&XR.*X&XS.b P K P z ^ s b l q ^ X.o.X.Q u y u ",
"' X.o.X.' X.X.o.o.#.&.&.#.-.5.t.e.t.e.u.i.;.f '.gXjXjX3X'.).3XlXaX+X{.{.Y.Y.J.n.v =X=XI.n x P P P Z.k !  .p u  .3.e.3.-.#.o._ ~ ",
"/ ^ ^ ~ ~ ~ ^ / ^ / / X.X.o.-.-.&.-.-.-.&.&.>., h @XjXjXlX8X5XhXhXlXlXhX6X+X+XoXK.F T n.D.A v l j 7 8 p ~ ~ / O.O.O./ ~ / +.#.#.",
"~ ~ ~ ~ / / / / / / _ / _ X.X.X.X.X.X.~ ~ / a B.J.J.8XhXfXhXhXhXjXfX]._.6XfXoXn.r W ! Q p p a w q < i Q Q ~ &.5.#.~ u u u i ~ X.",
"$.O.#.-.3.5.5.5.3.-.&.@.X._ | | / / | X./ 4 Z :X-X&X,XcXhXhXhXhX5XN.M.D.b.B p ~ O.o.~ ~ ^ ^ ^ ~ ~ ~ ~ / _ &.5.X./ X.Q y y y y u ",
";.2.3.2.-.3.5.e.y.y.y.e.3.o.X./ / / | O.e._ n.-X&X!.,XhXhXhXhXcX$XU.>X-X-XF ^ _ _ o.O.@.o.X.$.o.X.$.#.&.;.e.o.Q i ~ X.o./ ~ u w ",
"O.o.X.X.X.O.O.&.-.-.;.;.5.5.;.-.&.O. .| O.X.D.-X&XW.$XlXhX#XfXhXfX&X&X&X-Xn.u ' / X.5.r.e.e.e.t.e.e.t.y.e.O.~ i u u ~ o.o.O.o._ ",
"/ / _ /  . .X.X.X.O.#.;.e.y.u.u.e.:.-.&.5.&.F.=X&XU.+XlX).1XjXgXhX}.&X&X-XD.+.-.#.5.-.&.3.3.;.-.&.&.O.$.X.~ i ~ ^ ! i i i i ~ / ",
"Q Q Q ~ ~ ^ ^ ^ / _ o.X.O.&.;.e.t.e.e.e.;.o.T =X&XU._.lX'.OXjXhX5XK.*X&X=XF.5.r.r.3.X._ / X.X.X./ / ^ ~ Q i / -.&.&.X.Q w , y w ",
"i u W Q W Q Q ! ~ / X.X.X.o.O.X.O.O.%.X.X.! F.-X&X!.C.xX).[.fXhXdXC.&X&X*XD o.&.@.o._ ^ ~ ~ ~ ! Q Q Q i i / -.O.X.o.O.o.^ u y y ",
"Q ^ / / / / ^ ~ ~ ~ ~ ^ / / | / / / /  .i Z U.*X&X-XB.3X5X'.1XjX5XC.&X&X-XB.a  ._ ^ ^ / ~ i i i u u i i / -.O./ ~ ~ ~ / _ X._ _ ",
"@.&.-.-.-.%.O.O.X.X./ ~ ~ ~ ~ ~ ! Q ~ i B J.&X&X&X*XJ._.vXhXfXlX+XK.-X&X*XP.c.q ! Q ^ | ~ Q Q Q ! ! / X.3.#.~ Q Q i i ~ ^ / / ^ ",
"#.#.-.;.:.5.;.;.:.;.o./ ~ ! ~ ! i /  .f I.D.*X&X&X*XU.V.4X5XjXjXC.U.&X&X*XU.m.B.w X.@.X._ X.X.' / $.;.e.-.! i u y y i u i u , > ",
"/ / X. .O.;.e.u.e.%.O.%.O.X.| |  .Q ` {.J.P.&X&X&X&X*XV.2X+XfX5XN.*X&X&X&X*XA Q.V ' 3.e.5.3.-.&.%.-.%.X.! 3 2 y y , , w w w > , ",
"~ ! / / / / X.X.O.;.e.e.:.;.:.>.f b.Q.&Xn.&X&X&X&X&X-XB.1XhXfX+XB.-X&X&X&X-XD.D.&XB.r / ;.5.e.e.5.-.X.i 2 u u u y y y w w y i ^ ",
"i i i Q ~ / / ! ' &.:.t.t.*...<.I.:X-XP.D.*X&X&X&X&X-XH.+XjXlX].H.-X&X&X&X&XW.M.*X-X!.B ! _ X.O.| / / / / / X./ / ~ Q i u u y y ",
"u u i i Q ~ ~ O.-.o._ ` { L.G.Y.&X&X-XD.J.*X&X&X&X&X-XH.%XlXjX_.P.*X&X&X&X&X*Xn.Y.*X*XXXA A.B i p W Q ! X.#.&.&.O.X./ / ~ Q y , ",
"Q ! Q Q Q ~ o./ / ( P G.W.*X*XU.R.Y.*Xn.I.*X&X&X&X&X-Xm.%XlXjX_.Y.*X&X&X&X&X-XJ.J.&XJ.D.Y.-X!.D.S.d 3 u Q / / | X.O.O.X.X._ ~ y ",
"/ / / ^ / O. .^ ! p R.*X&X&X&X*XE./.*XM.Y.*X&X&X&X&X-XM.OXlXlX_.J.*X&X&X&X&X*XJ.D.Y.P R.&X&X&X-X^.R , y u u u i i ! X.O.O.X.X.^ ",
"o.o.X.O.;.o.! i W a I.*X&X&X&X&XR.R.*Xn.I.*X&X&X&X&X-Xc.1XjXlX_.H.-X&X&X&X&X-XD.n.Y./.!.&X&X&X&X-XF < u y 2 2 y u u i ! ! i Q Q ",
"%.-.-.;.X.i u 4 a L.*X&X&X&X&X&X&X&X*XJ.J.*X&X&X&X&X*Xc.5XhXlX].m.-X&X&X&X&X-Xc.D.I.&X*X&X&X&X&X&XW.F ^ Q y , , , 2 2 3 u 2 3 y ",
"/ X.X.~ 3 Q i u y D &X&X&X&X&X&X&X&X*XXXP.*X&X&X&X&XXXN.hXfXjX+Xn.-X&X&X&X&X&Xv }.&X&X&X&X&X&X&X&X!.T O.o./ i u , < , , < < , > ",
"u u 2 2 3 i / / / W D =X&X&X&X&X&X*X=XI.P.&X&X&X&X&XU.{.vXjXlXfXC.&X&X&X&X*X!.M.=X*X&X&X&X&X&X&X&XV / / X.X.X./ ! / / y > e w > ",
"u y 2 u ~ X.o.O.X.o.~ H.-X&X&X&X-XW.m.v B.I.U.!.&X*X}.K._.3X3X#XK.!.&X&X&X&XP.M.Z }.*X&X&X&X&X-XA i / ! ! ~ X.X.o.X.^ ! u ) e 1 ",
"2 ! / X.&.;.;.;.%.%.>.` K.=X*X=XP.s l k Z.S.H.*X=XU.&X~.r y > Z *X*X-X*XU.J.Y.n l d D =X-X-X;XB.q ~ ! Q Q Q ! / X.~ 2 , Q ] e 1 ",
"2 ~ O.&.%. .X.o.%.>.;.%.( { <.C w 4 y G Y 9 Z.U.V q D E.Y i 2 J ~.D F }.~.S.v H j q , g T T B w W i u , 2 u i i i ! Q u u ) ` Q ",
"u ! ~ ~ ! / ^ W ! / / / ! E 4 4 3 < > s < 0 K q 2 3 , q l q g b r > < e L G 5 6 8 , , , < < , y 2 2 2 , , , , , y 2 Q / Q 2 y u "
};
