/* XPM */
static char *_94e02b94eb3455f8416eb82b9bd07f8OlB0InrzMW6PA1dp[] = {
/* columns rows colors chars-per-pixel */
"64 64 162 2 ",
"   c #276758",
".  c #2A6D5D",
"X  c #2A715D",
"o  c #2C6E62",
"O  c #2E7464",
"+  c #2E7866",
"@  c #2E7768",
"#  c #2E7A69",
"$  c #307466",
"%  c #307966",
"&  c #317769",
"*  c #337C6C",
"=  c #357F70",
"-  c #387F71",
";  c #34816F",
":  c #38826F",
">  c #358373",
",  c #398475",
"<  c #368876",
"1  c #3A8877",
"2  c #378679",
"3  c #3B8679",
"4  c #378979",
"5  c #3D8B7C",
"6  c #3F907E",
"7  c #40877A",
"8  c #418C7E",
"9  c #41907E",
"0  c #3E8E81",
"q  c #3E9181",
"w  c #3E9588",
"e  c #428E81",
"r  c #449284",
"t  c #489586",
"y  c #449987",
"u  c #499886",
"i  c #459689",
"p  c #49968A",
"a  c #469A8B",
"s  c #4B9A8D",
"d  c #519C8F",
"f  c #4D9D91",
"g  c #519E93",
"h  c #4CA08E",
"j  c #4DA193",
"k  c #4FA299",
"l  c #53A295",
"z  c #59A197",
"x  c #55A49A",
"c  c #5AA69B",
"v  c #54A89C",
"b  c #5AA99E",
"n  c #60A99F",
"m  c #55A7A0",
"M  c #5AA7A0",
"N  c #57ABA1",
"B  c #5DACA2",
"V  c #5FB0A5",
"C  c #5FB2AA",
"Z  c #62ADA4",
"A  c #63AFA9",
"S  c #63B1A7",
"D  c #68B1A7",
"F  c #67B4AB",
"G  c #67B6AA",
"H  c #66B6A9",
"J  c #67B3AC",
"K  c #64B3AA",
"L  c #68B1A9",
"P  c #68B3AB",
"I  c #6BB3AB",
"U  c #6AB4A9",
"Y  c #69B4AB",
"T  c #68B4AA",
"R  c #6AB5AA",
"E  c #69B7AB",
"W  c #6CB4AA",
"Q  c #68B7AD",
"!  c #6AB6AD",
"~  c #6BB7AF",
"^  c #6CB7AE",
"/  c #6EB7AE",
"(  c #6AB5AC",
")  c #64B8AE",
"_  c #6BB9AF",
"`  c #6BB8AE",
"'  c #71B7AE",
"]  c #70B7AF",
"[  c #72B8AF",
"{  c #67B7B0",
"}  c #69B7B0",
"|  c #6DB7B0",
" . c #65B8B0",
".. c #6DB9B1",
"X. c #6CB8B0",
"o. c #6DBAB1",
"O. c #6CBAB2",
"+. c #6DB9B2",
"@. c #70B6B0",
"#. c #71B8B1",
"$. c #72B8B1",
"%. c #70BBB4",
"&. c #75BBB4",
"*. c #74BFB7",
"=. c #72BCB4",
"-. c #79BEB7",
";. c #79BDB7",
":. c #75BFB9",
">. c #75BEB9",
",. c #7CBFBA",
"<. c #79BFB9",
"1. c #76C1BA",
"2. c #75C1BA",
"3. c #78C1BB",
"4. c #78C1BA",
"5. c #7AC4BD",
"6. c #7EC5BD",
"7. c #7DC4BE",
"8. c #7CC6BE",
"9. c #7BC3BC",
"0. c #7DC6C0",
"q. c #7DC6C1",
"w. c #7EC8C3",
"e. c #85C2BF",
"r. c #82C4BF",
"t. c #84C4BD",
"y. c #81C4BE",
"u. c #85C7C2",
"i. c #83C6C2",
"p. c #8BC6C3",
"a. c #8AC7C3",
"s. c #82C8C1",
"d. c #84C9C4",
"f. c #8CCCC7",
"g. c #8BCAC6",
"h. c #89CEC9",
"j. c #8FCEC9",
"k. c #8CCDC9",
"l. c #92CECB",
"z. c #8ED0CB",
"x. c #96D1CC",
"c. c #93D1CE",
"v. c #9CD1CE",
"b. c #9FD7D4",
"n. c #9BD5D2",
"m. c #9CD8D4",
"M. c #A5D7D5",
"N. c #A5D7D6",
"B. c #A0D6D4",
"V. c #A3D9D6",
"C. c #A2D9D6",
"Z. c #A9DAD7",
"A. c #A7DAD8",
"S. c #A3DBD9",
"D. c #A8DBD9",
"F. c #ABDCDB",
"G. c #B4DEDF",
"H. c #B2E0DE",
"J. c #B4E0E0",
"K. c #BDE5E5",
"L. c #C0E7E7",
"P. c #C6E9E9",
/* pixels */
"s a r 8 8 p e 5 3 , , r Z 6.6.,.Y Y #.r.M.G.e.B Z Z d 8 5 5 8 t p 8 e r r r a s s x Y Y Z x r , > > , 5 r s e 5 1 , 3 8 s l g e ",
"f p r e 9 s r 8 5 , > , , p L / &.j.b.A.D.p.z d r r j 8 5 e f g p r r r r 5 r l l x c D F o.B r 5 3 > 5 c F b x l l x c l x Y l ",
"c L Z l a r r t s e 7 , * * < #.-.l c D K v B c p r r r r p l B x s r r s l l x l s r r s l B b f g g Z J Z Z L 2.5.! =.o.V c g ",
"6.s.h.*.K b f s B v p r 5 , , s s r r l S Y / Z d r r s a a r l Z c s x 3.V.x.o.B V ! W c i a B K B B o.| Z c g B K Z S F K Z B ",
"K _ o.3.3.:.! f j Z Z b x r 5 5 e r r r a c l a 5 3 p l r r r 8 r s s K q.u.M.f.K B S t.' f l V V l x B B s 3 f Z K K L Z x x B ",
"i g s c F B b c a l b c x s i r r r r 5 5 r r 5 1 3 3 5 5 5 5 5 1 e i f Z I Z b l s t r 5 5 e e p p r r p r c <.3.I x a r B Z c ",
", 3 e r x ! l a s a a s s g v f p r i r r s p 3 > 5 5 > > > , 3 5 8 e r g D I g a s 5 5 5 3 , , e p d c l f u s Z c c l b Q e > ",
"> , > , 5 g B j p p s s l Z | Z l j a e p g e , 3 8 e , * - 3 5 8 5 r a s g s r y x f 5 5 i g s l Y K b i > * 5 3 , 3 8 9 > * - ",
"5 5 > , , 3 p B Z j t a c c b D W b s r p , ; > , 8 e 5 , 3 , 7 r i r f x c V =.h.j.d.K j l l a r i f B s r p , * * * - - > > * ",
"i r 8 5 5 , > 3 e e r r r r r e 8 5 5 8 8 8 3 5 3 , , 8 q e p 8 e p r e r r r r g @.i.j.s.r.6.7.b i g f r b z - > > , 3 > < 3 l ",
"Z B K s 0 5 r 8 8 p a a p s 5 > * , 5 7 r i f s p l s 8 3 3 8 5 3 5 0 3 - * @ @ # * 5 r g B 3.l.i.B r 3 , < # > < 5 r r r f -.n.",
"B l } 2.K F ! S B x f x x s r , > , p r 5 r s 8 e f *./ f r s g p p f x r # @ O O $ & & * > 0 l o.h.6.Z s s B A D =.u.r.7.j.<.B ",
"Z x s g l x Z K B B s < 3 , 3 0 a p f f f e 5 8 , > g S.6.Q d.:.l a i f ! g * . . . . O $ & & > e g Z #.*.K z d s l A 7.f.c e r ",
"s B Z B Z B x c c l p 3 , 3 3 a Y i.i.2.2.*.p 5 5 , > Z r.B v b _ D c r r c > o . .   . O @ @ O O @ @ = , - * ; 5 f B l 5 r b ! ",
"r p g c L =.3.*.r.f.r.c s f / c.x.a.j.9.q.h.g.u.p.b 5 > 5 g Z 3.6.u.b.Z.z , r - @ O O . X O * & . . O @ @ 3 p L Z e , * , s s p ",
"5 5 r 5 3 3 8 e i f K O.=.s.V.n.g.r.-.D l i c #.=.u.s.Z r l b g r g 6.x.q.b r 5 , * & @ O . @ * * @ > * O * 7 r 8 > * * > r , * ",
"s e 5 5 , * & # O o O , g Z x i r e , * , 8 p b b s c ,.7.o.L s 5 5 z A.o.B x r s r * * & @ @ @ $ O O . o $ * - i s , * > , @ + ",
"K x r r 5 > 5 r e , * - > , * & - * & % & 3 l S f 5 > , r j l s s 3 > g n.b.d.! v j r > * # # $ $ $ O O $ * > - - - * @ O . O O ",
"2.K f i s b | 5.5.! B i 5 > & $ & * * & & * > > > 3 , , 3 5 r a i 8 i > i r.V.S.c.! g p r s s 5 - > > ; * = - * & $ $ $ & O $ & ",
"=.:.K s r s B K Q K c Z L c h s 5 ; , e * - > > , r 5 3 5 , 3 5 e 3 , > > , s / i.:.| | } a.w.#.L D l q 3 r y , * & * - - * > < ",
"g i.j.! x r r p p s s g p r f f e 5 3 1 , , 1 > 3 8 5 5 r 5 , , , , , > , 3 , 5 s i r a 0 r l / =.Z b f i s i i s e q 5 3 , 5 r ",
"e c r.=.! B l s p s i 5 e s r 5 3 e 5 , 5 5 f l 0 5 5 q r 5 8 e r 8 5 5 , , 3 5 , 3 > * < s s 5 5 5 5 s f B <.B a r s f s t s a ",
"p e e r f O.S x c Y 7.Z r s s e 5 3 5 p x b r s r 3 r i e r b b x s e 3 , > > , p K B l f i.n.%.b l l Z ' ! g.V./ s l b b x g r ",
"g s t 5 5 p K ^ D M | w.b r i 0 5 5 5 l v b l s g D v f a l x 8 1 1 5 3 5 3 3 e p f K 2.d.i.g.n.c.o.! c 5 e g =.*.l a r r 0 q g ",
"f i r r 6 5 , 8 r a f x %.:.x s x b Z z s l / B B [ B f i r 3 3 5 9 r r 0 5 8 e r e p b =.2.7.i.r.3.#.l 3 * > r j a r r r 8 8 a ",
"l i r e e r 8 3 , 3 , 3 s o.%.! K V S } S 9.f.l.$.i r a s s g x s 6 5 5 5 5 5 e r i s l ! 2.! Z Z Z l 5 * * * 5 i 5 1 1 5 8 5 < ",
"5 r s r r p r e 8 r s b l x B ^ *.! o.q.g.l.n.x.b.S.j.i.9.*.} } %.L g s l s i r r a s p f f s s a r 3 3 > * * ; r p 5 3 5 5 3 3 ",
"5 5 e 8 8 e r 8 8 f f g l s f l Z W Y Z x f l b B D y.l.b.B.c.3.q.j.r.=.9.o.b f r r r 5 , * , 8 5 , > < , > ; ; > 3 5 3 5 r s r ",
"5 5 5 9 e e r t s s s s i r r r s s a s f r 5 e 8 > 3 r W Z.F.m.2.K c f i f s g Z D j 5 , > - - = 5 e > 5 , > > , > , 3 r x l r ",
"8 e a s s f z c l c Z Z B b g s r r f s r s r 3 e e 5 3 < s 3.n.V.b.n.Z.g.K &.6.=.b p 5 3 < > * r p p 5 5 5 8 5 q r t g l l r e ",
"l l g s i p p a s g x Z ! ! c a s l a 5 5 5 5 5 5 e 3 , 1 , r B &.*.6.v.[ f B c V s 5 0 i 0 < > 3 4 3 8 5 r r i f s x b l 8 5 8 ",
"j s r r r q e r r r x Z B x l g s r 8 5 5 3 , 5 5 1 , 3 > , 5 5 r l l a f b j s l a 0 5 s a , 3 3 5 e 8 r r i a r r l g e 5 0 r ",
"r r 8 i i r i t r s f r 5 e r r 5 5 8 0 5 , 1 1 3 3 5 0 5 r r 5 r t a s r 5 6 r r r r r e e r r 0 0 r r r 8 s B a r B Z e 5 3 q ",
"r e e p f s l a r r r r t p 5 r r 5 r r 5 3 3 5 r 5 r l Z B s 8 p c / *./ x r 5 5 q r p r 5 r r r p s r 5 5 5 q q r r r r 5 , 3 ",
"r f B B f r p p r t s b j r r f r 5 r a e 3 , 5 r 8 1 7 t i e 8 r l B | 7.=.V l p r 8 8 r w i s i g x r 5 5 8 5 3 5 5 r e 5 3 5 ",
"f c B f i i r r i r r r 8 8 8 5 r r r r 8 1 , 3 r r 5 , < , 3 3 r a i i f l Z Q Z l x b ! ^ ! 3.| f a r 5 5 i e r l b K Z f r a ",
"r r y s i e e r r r 8 5 8 r 5 3 5 8 e 8 5 8 e 5 s f r e 1 > > > 3 8 r r q 5 r j B B v B S ! { *.h.=.B j r q i i s f a r a s f s ",
"5 5 e e 8 5 r f l p r r r r 5 , , 3 0 r l e , 8 p f i r 5 5 , ; > , 5 5 5 3 r a r j s i i w 5 5 s #.:.Q l r q r 3 > > , , s r r ",
"5 r l n c s p x f r r r t r 5 5 5 5 e 5 e r 5 , 5 r r r r 5 3 > > , 1 , , 1 5 e 5 5 e 3 , 5 5 5 < r b Y Z f q 5 < - , 3 3 r 3 3 ",
"5 e s x x c c s r s p e r p r r e r r r l v s a f r t s i r 5 3 , < , < > , 3 3 3 3 3 3 , < 5 5 3 < > 5 s l a q 3 > 3 q 3 , 5 r ",
", 3 3 5 8 p i 8 r b _ c l s a a x x s a f Z r.6.f r r r e e 8 5 e 5 ; > > < < < < 4 4 < < , 3 , 1 < > > 3 e r r 5 e r 3 5 e a f ",
"> , , , , 3 < 3 r Q =.o.Z f 5 r l s i r f f.f.B i r 5 1 5 5 3 > a 3 * > - * > > 5 3 > > , < < 1 > ; , 5 5 0 5 5 3 3 5 5 5 e a r ",
"> > > , , , > , t M c Y o.B r 5 r a r 5 r t 0 5 5 3 1 5 e 5 > > < > > < 3 5 - * 5 2 * * - > > > ; ; > , 5 q 5 3 > : , 3 5 5 r r ",
", > - > 5 , * - > - > ; 5 t 8 , 3 e 8 > > > > < 5 r q 3 5 3 - , 3 3 3 0 e r < * * * - , > - > ; * ; * * > 5 3 > ; ; > 3 , , > > ",
", , 3 3 5 > * * & & * * & * @ * , , ; * * > ; < 5 8 < ; & = 4 > > 3 8 3 e * * * , 3 5 q < > > > * * # 3 e e , > > > - > , 3 > > ",
"5 r s 8 3 > * * % * * * * , & $ & & * * , 5 > ; * * ; < p ! B c L Z i 5 s 5 5 f f i r r r < > > * * * 5 5 > > > > > - * > 0 3 > ",
"3 8 p 7 , > * & & * * * > * * * - * > 5 e r r r i f l B <.<.:.i.i.f.g.! K 3.h.j.o.l l I 9.Q l 5 # * > > > < , > * > - & * > > 3 ",
"> > , > * * * * , , , , > ; > , 3 4 f B s c o.a.c.d.5.*.=.o.K Q w.w.z.n.d.m B | l 3 > , p Z =.3.g ; > < 1 5 , * * > > < < > 5 i ",
"> , > ; * * , 8 5 , , 8 , 3 0 p s j B B / <.g.&.b S B B g t s x v c D 2.3.x s p , # * & # > r D r.l 3 , e y j r 3 5 0 5 5 5 i a ",
"5 8 8 5 5 5 5 5 , > ; > > 5 p f B o.B 3.p.#.l > + & > 3 3 , = * & # # 1 x B v x b x r 3 , > # * e l x a r 9 p v x s r 5 q e 5 < ",
"N l p i e 5 > 8 e * * * > 5 a B =.=.B b p 5 * O O O $ & > * + @ & * * & < l | B S 3.} x 3 > < * > 3 r i q 5 3 5 s v b f r 8 , > ",
") x i r 3 > > , 1 ; > > , 5 y s i e < @ # & * & O o & & & & & & @ @ @ # - & s 2.%.=.A B v 3 # ; - 5 q w q 3 3 3 5 s l r 8 5 3 < ",
"r r 0 5 3 , > > > : > > 3 5 5 ; @ O X . * r , * & # * * & & & $ @ & & * , & * f =./ Z Z K B s 3 3 3 e f s s s s g l j p s r e 5 ",
"5 8 5 3 < , > > , > - - 3 3 , > * & % O $ & & & @ + + & & * > > + @ & & O @ & * > > 3 a B v L b e 3 r f a j B D o.#.Q B B B l a ",
"i r e 5 < > > ; < , 3 , 1 < > < > * * * & & & & * > , > * > > 5 f p , ; * @ O @ & * * * e l f s i i x v s i l j x K | :.2.i.7.=.",
"0 8 8 3 , > > > > > < 3 a r < 3 , > > * * * * ; 3 e e 3 > > 5 3 0 l x i r e e 3 > > ; * 5 l r 5 i x ! Q x g p e 0 5 5 f x x Z o.",
"q 0 5 r r s a a j r r i a r r q 3 3 5 < * * , 5 5 e r e 5 e p 0 4 # * 2 5 e p e , > < > > 3 < 3 f b v l f 5 = * > < < > > * > 5 ",
"a.#.K } =.2.i.j.6.V B B j B 7.} Q V b B j q 0 i r 5 * , r K A v r < 3 r g s 3 3 5 5 > * > r l Z | >.! i # # ; * = > > * % O @ $ ",
"Z #.K K F Z Q 3.6.2.:.=.! ! Q b Z o.*.x.V.z.) B c l r i e y i p i 5 i l A 7.=.*.o.v l j B ! d.d.2.o.r = > # # * * * # & & * * $ ",
"5 a p e r e 5 5 f ! B p r r r r a a y B g.H.m.K k v Q B x b S K B B x b *.9.! ! ) K O.w.s.i.d.l.Q q 5 i i q r 0 < ; * * * * * * ",
"S #.#.Z l p 8 5 3 4 3 3 3 3 3 , e s 5 > l =.j.d.Q B c v 2.z.z.h.:.o.6.9.K s i x B x l l B o.| i.9.l f p i i r 5 4 1 3 > > > > > ",
"B V 9.i.! c j a l ! S j r 5 5 , & * > , 5 j *.K.L.9.v x s l Z 3.r.*.:.B r * 4 r f a 5 r B B x B B a r e 5 3 < 3 3 5 5 5 r r r 3 ",
"B v #.6.=.Q 2.#.v | i.C l r p , * * ; ; ; 3 a 3.K.P.B.v 0 , q  .v i 5 e s 3 < , 5 5 < 5 r i a e 5 r a i r a f r 5 r r r r 5 5 q ",
"i p g Y #.F o.7.:.S 9.2.B j i r 5 5 > > , ; < i o.D.J.z._ b e p s 5 3 5 r p 8 q a i 3 < 3 3 > > e x K Q K D F v i s c A Z B N v "
};
