/* XPM */
static char *_151263e8fe24e99948082618c9b36f244fEEJWB9OiPLRy5[] = {
/* columns rows colors chars-per-pixel */
"64 64 231 2 ",
"   c #0A0504",
".  c #180C03",
"X  c #1B1008",
"o  c #2C1504",
"O  c #241203",
"+  c #321501",
"@  c #3B1B03",
"#  c #361A05",
"$  c #251105",
"%  c #3D210B",
"&  c #3D2107",
"*  c #3E2A15",
"=  c #3A2816",
"-  c #2E2113",
";  c #421E02",
":  c #4B2504",
">  c #42260D",
",  c #482609",
"<  c #542A05",
"1  c #5B2D03",
"2  c #552D0B",
"3  c #5B2E09",
"4  c #532704",
"5  c #5D310A",
"6  c #442B14",
"7  c #472B17",
"8  c #4B3219",
"9  c #5B3511",
"0  c #57361A",
"q  c #522F11",
"w  c #653203",
"e  c #6B3504",
"r  c #64330A",
"t  c #6A340A",
"y  c #6E3A0B",
"u  c #753B04",
"i  c #7A3E05",
"p  c #733B0B",
"a  c #7A3F09",
"s  c #643A13",
"d  c #6C3D13",
"f  c #653D1A",
"g  c #603714",
"h  c #6C390E",
"j  c #4D3727",
"k  c #593D23",
"l  c #7F4107",
"z  c #7D4109",
"x  c #77400B",
"c  c #6B411B",
"v  c #744216",
"b  c #7B4515",
"n  c #734419",
"m  c #794719",
"M  c #7C4A1C",
"N  c #79491C",
"B  c #5A4429",
"V  c #5A4835",
"C  c #684828",
"Z  c #734B24",
"A  c #794D25",
"S  c #78532D",
"D  c #7B5A34",
"F  c #795B37",
"G  c #684D33",
"H  c #5D4D42",
"J  c #67584D",
"K  c #7C6548",
"L  c #756457",
"P  c #7D7269",
"I  c #79746E",
"U  c #824206",
"Y  c #82440A",
"T  c #8A4709",
"R  c #854A14",
"E  c #844C1A",
"W  c #8A4F19",
"Q  c #8A4D15",
"!  c #8D521C",
"~  c #92541C",
"^  c #99591D",
"/  c #824F20",
"(  c #8B5523",
")  c #865629",
"_  c #915721",
"`  c #935A24",
"'  c #935D2A",
"]  c #985E28",
"[  c #895C33",
"{  c #905F32",
"}  c #9B622C",
"|  c #96612E",
" . c #896337",
".. c #946233",
"X. c #9A6432",
"o. c #9D6836",
"O. c #9C6B3A",
"+. c #966939",
"@. c #9D733D",
"#. c #A16329",
"$. c #A26D3C",
"%. c #A26A35",
"&. c #A2753E",
"*. c #A5783F",
"=. c #AA713C",
"-. c #876A43",
";. c #916E42",
":. c #9E7541",
">. c #9C7A4D",
",. c #967446",
"<. c #8F7552",
"1. c #A27641",
"2. c #A57A42",
"3. c #AB7D43",
"4. c #A77B47",
"5. c #B17943",
"6. c #877D73",
"7. c #AE8146",
"8. c #AD824A",
"9. c #A6804C",
"0. c #B28346",
"q. c #B48549",
"w. c #B6884C",
"e. c #BB8B4C",
"r. c #B88749",
"t. c #A98554",
"y. c #BB8E51",
"u. c #B68C52",
"i. c #BE9153",
"p. c #BB925A",
"a. c #8C8378",
"s. c #9E8D74",
"d. c #B29368",
"f. c #C08F4E",
"g. c #C2904F",
"h. c #C08F52",
"j. c #C39353",
"k. c #C99653",
"l. c #CC9956",
"z. c #C39659",
"x. c #C6995A",
"c. c #CC9C5B",
"v. c #C79855",
"b. c #D29D56",
"n. c #D29E5A",
"m. c #CEA05F",
"M. c #D4A15C",
"N. c #DAA55D",
"B. c #DFA95F",
"V. c #C99E62",
"C. c #CEA262",
"Z. c #CBA46B",
"A. c #D4A563",
"S. c #DAA761",
"D. c #D6A966",
"F. c #DBA964",
"G. c #D6A969",
"H. c #DCAD6A",
"J. c #D0A66B",
"K. c #DEB06E",
"L. c #D8AD71",
"P. c #DDB373",
"I. c #DEB97A",
"U. c #CDA871",
"Y. c #E2AD64",
"T. c #E1AF6A",
"R. c #E3B26D",
"E. c #E9B469",
"W. c #F4BB6C",
"Q. c #E4B573",
"!. c #E8B773",
"~. c #E5B876",
"^. c #EAB975",
"/. c #E5BA7A",
"(. c #EABE7E",
"). c #EABC7B",
"_. c #E0B778",
"`. c #F1BE74",
"'. c #EDC07E",
"]. c #F2C27C",
"[. c #99948A",
"{. c #989490",
"}. c #A29D94",
"|. c #A09B8C",
" X c #AEA99B",
".X c #A7A299",
"XX c #B2AC9D",
"oX c #AEA9A3",
"OX c #B9B4A6",
"+X c #BCB9B5",
"@X c #B1AEA9",
"#X c #E5BE81",
"$X c #E9BF81",
"%X c #C4BFAF",
"&X c #E5C082",
"*X c #EAC082",
"=X c #EDC182",
"-X c #EAC386",
";X c #ECC384",
":X c #EBC589",
">X c #EEC98C",
",X c #E7C488",
"<X c #F3C685",
"1X c #F3CC8F",
"2X c #C7C3B9",
"3X c #D3CCB8",
"4X c #D7D1BE",
"5X c #C9C3AE",
"6X c #CBC9C6",
"7X c #D0CEC9",
"8X c #DED8C4",
"9X c #DAD5C4",
"0X c #DBDAD5",
"qX c #D9D8D4",
"wX c #E1DBC6",
"eX c #E3DEC9",
"rX c #E0DEDA",
"tX c #E7E2CD",
"yX c #ECE6D2",
"uX c #EDE8D3",
"iX c #E3E2DC",
"pX c #F1ECD6",
"aX c #F6F1DB",
"sX c #EEEEE9",
"dX c #EAE9E4",
"fX c #F0EFE9",
"gX c #F3F2EC",
"hX c #FDFBEF",
"jX c #FCFBF5",
"kX c #FEFEFC",
"lX c #F7F7F3",
/* pixels */
"&X/.&X,X,X:X>X>X>X>X>X,X:X:X:X>X1X>X>X>X;X/.~.~.~.~.).(.;X:X>X:X=X;X(.(.(.~.~.).Q./.~.Q.Q.~._.!.Q.Q.H.K.R.H.H.D.G.H.G.G.G.G.G.D.",
"/.I.&X-X>X,X,X>X:X#X-X,X-X,X:X;X;X*X*X$X;X;X;X:X'.(.(./.~.(.~.~.~.(.(.(.(.(.(.(.).Q.Q.~.~.Q.Q.K.R.H.R.H.H.H.H.R.H.G.G.G.D.A.A.D.",
"I.#X&X,X,X,X,X>X:X:X:X>X-X-X-X-X-X;X$X(.(.(.~.).(.;X;X;X*X;X(.(.(.).Q._.Q.~.).).).(.(.).Q.Q.Q.R.R.K.H.H.H.H.D.D.D.H.H.G.D.A.G.A.",
"&X&X-X,X-X-X,X,X#X#X*X:X:X:X*X$X$X$X*X*X$X$X(.(.)._.~.~.(.(.(.;X(.(.=X;X;X;X(.).Q._._.Q.Q.!.Q.H.H.H.H.H.H.R.H.H.D.D.A.A.G.D.A.D.",
"I._.#X>X>X&X#X:X>X,X-X;X;X/.$X;X*X(._.~./.~.(.(.*X;X;X*X;X(.).Q._.Q.Q.Q.Q.Q.).).).~.~.Q.Q.Q.Q.K.K.R.R.H.H.F.A.H.H.H.H.H.D.A.C.C.",
"#X&X/.I.#X#X#X/.I._._.~.$X(./.~.(.#X(.*X(.~._._.Q.Q.~.(.).~.(.$X;X;X;X$X(.(.(.).!.!.Q.Q.Q.K.H.H.H.H.F.H.H.H.H.H.A.C.A.A.A.A.A.G.",
"I._.,X>X-X&X-X:X-X*X-X:X:X:X;X$X/.~.~._.~.(.(.;X;X(.~.~.~.~.Q.K.H.K.Q.~.Q.Q.Q.^.).).).~.Q.Q.^.Q.Q.!.R.H.F.D.D.D.D.H.H.D.A.A.A.A.",
"*X&XI.I.I._._.P.P.P.L.P.P.P.P._._.~.(.(.~._.Q.Q.~.).).~.~.).(.;X;X:X=X(.).Q.(.).Q.Q.Q.!.R.H.D.A.A.D.A.A.D.D.F.H.G.D.A.C.A.A.A.C.",
"_.#X-X*X&X$X*X-X:X:X:X:X:X:X$X;X(._.Q._.~.~.~.Q.~.).).).].).Q.Q.!.R.H.H.Q.Q.Q.Q.Q.Q.Q.).).).^.!.Q.^.!.Q.R.H.F.A.c.x.C.A.A.V.C.A.",
"_.I.P.P.K.G.H.K.K.P._.I.I.~._._.~.).(./.(.].<X(.~._.~.Z.>.V.^.H.K.).'.;X(.).(.).!.Q.R.H.D.D.F.F.D.A.c.c.c.A.A.D.H.R.R.H.H.H.D.C.",
"/.(.;X;X'.:X-X(._._.~.~._._.H.P.P.H.K.^.G.>.G C 0 0 C 0 A D U.1X<X].).Q.!.R.H.H.K.Q.Q.).(.).!.R.K.Q.!.^.!.R.H.H.D.c.z.p.i.p.z.x.",
"C.J.D.D.H.Q._.P.~.~.(.(.'.;X;X;X(.<X_.<.j 2 b s & & 2 #.=...8 >.H.F.D.H.H.Q.(.=X'.).Q.H.F.D.D.H.H.H.D.A.c.c.A.D.F.F.H.H.R.H.H.H.",
"*X/._._.P.G.H.H.H.H.G.G.G.A.C.A.!.>.* 2 Q ^ 9 > M #.# s E g E d B U.<X;X<X(.K.A.D.F.H.!.Q.Q.!.!.F.A.A.C.H.!.H.A.c.z.z.z.x.z.z.i.",
").(.'.;X:X'.H.G.G.H.H.H.P.~.(.<XK & R ^ ~ , 0 %.%.> X 7 A ) C =.) C C.R.H.R.!.^.'.].(.!.H.H.F.F.R.(.^.^.!.M.c.D.H.H.H.A.c.c.A.A.",
"c.C.A.J.G.Q.(.'.).(.).~.Q.K.Q.V , ^ ~ ~ , f =.} q - ..S k 5.C [ O.[ C L.^.R.H.H.F.A.D.H.Q.!.Q.!.H.A.M.c.M.F.R.T.c.z.x.c.F.H.A.x.",
"G.H.H.G.C.c.m.m.c.c.c.C.D.H.B 2 ^ ( } q c $.o.s * ..=.[ k $...k $.[ [ F !.H.H.H.Q.Q.Q.R.H.F.A.x.x.c.c.c.A.M.z.j.A.H.A.x.p.x.A.A.",
"'.'.'.(.).Q.G.G.H.H.Q._._.V 2 ^ W } c c $.$.N 6 ) =.O.O.C +.1.0 +... .Z t.P.(.(.(.!.T.R.R.R.H.H.!.^.^.^.!.H.A.H.R.A.A.F.F.F.z.p.",
"C.A.A.G.K.!.).).).!.D.V.K & ^ ! ~ m 9 } o.' q Z =.O.o.$.Z +.2.S C 3.S E 0 p.M.M.M.c.c.c.c.A.S.F.F.F.S.A.A.A.F.H.c.z.y.y.e.y.z.z.",
"x.x.z.z.z.x.x.x.x.x.A.x.* ! ~ ! ! s ! _ o.g f $.O.O.O.$...O.$.+.C 4.) b r >.F.A.R.^.(.^.^.!.Q.T.A.l.z.j.j.j.y.y.M.H.F.D.D.F.F.F.",
"~.P.H.G.V.c.c.A.H.!.~.V d } ` _ v / ] } / 9 [ 1.[ O.O.$.o.$.$.o...' ` ! i C <X(.(.!.H.A.M.M.M.M.A.D.F.H.R.T.H.A.c.p.y.z.c.c.i.y.",
"H.!.!.!.^.).Q.Q.H.D.<.6 } ' ` ( m ~ X._ s n o.[ [ 1.O.$.+.O.1...' ` W W U 5 p.R.M.c.c.c.c.c.A.F.R.R.R.R.R.T.F.F.A.A.x.p.u.w.q.u.",
"p.x.c.c.c.x.p.p.p.x.B v } ` ` m ! _ ~ b v E ` n ..O.O.$.+.[ 1.` M X.! Q z e D A.c.c.H.!.!.!.!.R.A.z.z.c.z.j.j.y.y.z.A.F.F.F.F.F.",
"c.i.y.z.z.c.G.K.!.d.7 ~ | ` ` v ' ` ~ n ! ^ b f } ' ' ` ..) o.` E / ! z i i f Z.J.^.!.R.S.M.M.A.F.A.x.j.i.y.i.z.c.F.n.j.y.z.c.z.",
"C.D.D.H.!.Q.H.H.C.-.2 ] | ] ( d } ` ( N } ! 9 E _ X._ ~ X.A $.X.W v R e z U 3 d.!.H.A.c.c.z.z.z.j.c.F.R.R.R.R.R.R.A.c.c.p.w.8.8.",
"H.K.K.D.x.p.z.9.,.C d ^ ' ] m n } ` M ( M 9 E ~ W ] ! ! ' Z 1.] W v z w z z r F :.j.c.c.z.z.c.A.A.n.l.k.l.n.M.l.i.w.8.w.z.M.c.j.",
"p.i.y.y.p.z.c.-.p.8 R ~ ! ` n M } ` E / 9 ~ ~ ~ b s ~ ! ! n ..~ ! r a r z z ; V OXs.t.k.!.`.].^.!.!.R.F.c.j.y.w.e.j.z.z.z.z.c.M.",
"8.y.C.H.!.!.G.9.V.* E ! ! ^ n m ] ! ` N v ~ ! ~ M > ! ! ~ v E ~ R < Y w a : L 0XkXlX}.s.;.+.D G G D +.q.M.F.F.F.F.T.T.H.F.A.z.q.",
"A.A.m.A.c.c.z.c.>.6 M ` M ( m d ` ! ` ! E ! ! ! v 9 v ~ ~ v E Q a < w , > H gXkX6X7XfX6X}.@X6XqX7X6X.XL C  .q.l.z.i.j.i.y.u.i.x.",
"A.D.c.q.7.q.w.z.<.> / ' d ( ! 9 ! ! ! ! ~ ! ~ v E m g d E v y U e @ J 6.[.iXkX6XI [.6X0X7XrXiX0XdXlXkXkX6XL 0 D 8.8.7.3.4.8.y.n.",
"i.z.A.A.c.m.A.x.-.# ( / s ' ` v 9 ~ ~ E W ~ v v ~ v ! ! d < e w j .XlXsXiXgXoX[.4XwXOXXXOXOXOXOXXX X.XoXlX6Xa.C D A.z.z.c.A.c.j.",
"w.i.z.A.R.R.D.H.>.# ^ n s ` ! ~ v q ! v ! E d ~ ~ v b Y 5 < @ 7 +XkXlXlX6X}.%XeX9X4X8X8X8X8X8X8X8X8X8XOX+XgXgXK 8 z.F.S.M.c.j.p.",
"i.x.x.c.z.j.z.F.K ; T 5 s ~ ! ! ^ v m m ~ s R Q R p w i a 1 o a.@XiXdX.XOX8X8X4X9XeXeXeXeXwXtXpXpXpXaXtX7XkX{.Z 6 :.e.w.q.8.8.4.",
"H.F.m.y.q.u.j.4.-., T : 1 Y Y R R ! b h d r U u l t e e h + G fXgXfX}.3XwX4X9XtXyXuXuXuXpXaXtX%X5X+X.Xa.[.<.c c s ;.w.3.4.8.8.8.",
"y.q.q.w.i.c.c.t.z.> U : 1 l u u a Y 1 w y e i i p r u < 2 # OXkXjX0X XeX4XwXyXuXuXyXyXpX8X X}.+X+XI 0 7 7 f f ` M -.A.c.c.c.M.c.",
"z.i.z.A.R.R.F.A.c.7 i : 1 Y u i z Y < e Y u i u r p r r + J kXgXjXOX5X9XeXuXuXyXyXuXuXtX[.qXsX7XJ 0 6 9 n n _ } ) D n.n.M.A.c.l.",
"A.H.H.D.i.w.q.q.y.j e : < Y u i z l : u i u i w r p 3 r @ oXkXlXiX.XwXeXuXyXyXyXuXyXyX X+XkXdXiXk 0 , _ ^ ] X.] ' D e.q.e.u.w.q.",
"z.z.y.z.z.z.l.c.F.-.< < : Y u i z i : a i e e : r p 3 3 & 7XjXkX2XXXyXuXyXyXyXyXyXtX3X{.sXdX7XH @ g m A } ` O.} / A 8.3.4.4.4.4.",
"8.w.y.c.A.F.S.F.R.G.8 < @ z u i z u : z u < r 3 t t 3 4 6 0XkXjXqX XaXyXyXuXyXuXuX5Xa.0XlX0Xa.@ 7 ` ( Z $.] O.} n S z.j.8.4.1.2.",
"i.j.z.j.i.j.j.j.z.N.F : @ p i i z u : Y r : t r p 5 3 4 * 7XdXlX7XI uXyXyXyXaX8X|.{.0XjXkXI + q E o.+.Z O.o.( E r ;.F.n.c.z.u.q.",
"e.w.w.q.q.q.w.e.w.e.u.6 O r i i z u : Y < : t r p : 3 2 + {.iXsX2X[.pXaXpXuXOX[.6XlXjXjXa.@ q E ~ X.$.Z { =.m m d ;.k.q.e.z.l.c.",
"q.q.q.q.e.e.e.e.e.e.j.:.  + T u z u : a : < t t y ; r r O 6.iXgXkXqXoX2X%X@XOXdXiXhXiXL + 9 ! ~ ] X.1./ ) %.n v N ,.2.4.2.3.q.j.",
"z.l.c.M.S.F.F.F.S.M.c.M.;.  < T z u : p @ < r p 3 ; p 3 . 7 0XkXfXlXrXqXdXgXkXsX.X}.j @ r ~ ` ` ' X.$.) A } d d Z z.7.2.2.1.2.2.",
"N.A.S.A.M.S.F.Y.R.R.R.Y.Y.4.- ; u T : y @ 3 t p @ r p X # @ V rXjXkXkXkXkXkXsX}.j @ 4 x T Q ` ..N } $.' N ] d 9 D e.j.z.e.q.4.:.",
"l.z.j.j.j.l.l.n.M.M.N.N.S.E.M.F * @ O + o t p : : r . + @ & : 6 6.+X6X2XoXP j @ : , U Y Y R m o.n ! $.( E ! 2 q :.2.q.z.z.l.z.y.",
"e.e.y.e.g.g.j.j.j.l.l.N.Y.R.E.W.Y.t. .B = # $ . o X = C ;. .1 w @ # # # + @ 4 y U < w Y z Q m ! n E ` ! ~ d o  .e.7.3.3.3.3.q.e.",
"7.8.8.q.q.w.w.w.e.y.z.j.l.n.N.Y.E.E.W.W.M.w.2.:.4.c.F.Y.Y.E.D w T z u a i Y U i i i , u Y z Y d g 9 v R T o * S.n.n.j.8.:.@.1.:.",
"3.2.7.7.7.7.8.0.q.e.j.j.j.z.l.j.k.l.l.j.j.j.j.j.l.M.N.F.F.E.T.C 1 U Y l Y i z i e i u 1 i Y l a , @ i T e   ,.M.j.k.l.z.q.2.2.1.",
"8.w.e.e.e.e.w.q.q.q.q.w.e.e.f.e.e.e.e.e.e.0.q.q.e.j.j.l.l.k.k.j.k 1 i Y z i i Y u 5 i i w a Y Y z 1 T i o -.z.e.q.q.q.e.y.j.y.y.",
"c.n.M.M.M.b.l.l.j.j.e.q.q.q.q.q.0.0.q.q.e.f.e.e.q.q.w.e.e.q.q.7.,.D 2 w Y Y i i z u 1 e l i z Y T r 1 > 9.M.7.7.3.3.3.q.w.e.e.w.",
"c.c.M.N.B.F.F.N.N.N.k.e.q.0.q.0.3.q.e.k.M.M.M.l.j.q.7.0.0.7.7.e.z.F.p.Z 2 u T T e r p 2 < t i Y z # 8 M.B.7.3.2.2.1.3.2.3.2.@.O.",
"e.e.j.g.l.N.Y.E.Y.b.l.l.l.j.g.e.f.l.F.Y.E.Y.Y.F.M.k.j.e.e.e.j.M.Y.S.Y.F.-.Z r w u e 1 1 , o .     B M.l.3.*.@.1.1.@.@.:.:.:.O.@.",
"q.0.e.e.e.e.j.j.l.N.Y.Y.N.N.M.M.Y.Y.B.N.M.M.N.N.Y.S.N.M.M.F.Y.F.l.j.j.e.y.S.p.;.S c 9 , > % * B 9.Y.j.3.&.2.2.2.2.1.2.:.:.1.3.w.",
"3.3.3.7.q.e.e.0.g.b.B.Y.Y.B.Y.Y.N.k.k.j.e.g.g.k.n.S.Y.Y.Y.S.l.g.y.e.e.e.e.e.n.S.M.z.q.8.q.e.z.N.k.e.e.e.e.e.j.e.e.q.7.3.2.2.2.2.",
"2.2.3.3.7.q.q.l.M.k.g.j.j.k.k.l.l.g.q.q.0.q.e.e.g.k.l.b.k.e.e.q.q.0.8.7.7.q.e.w.0.q.q.q.0.q.e.q.7.0.7.0.j.l.n.n.l.j.e.e.q.7.2.@.",
"7.0.7.7.7.q.z.e.e.e.e.e.q.q.e.e.r.e.q.3.0.0.0.0.q.e.e.e.q.q.0.7.0.3.3.3.3.3.3.7.7.3.3.3.2.2.3.3.2.2.&.2.7.e.e.f.j.l.l.j.j.y.q.1.",
"e.e.e.w.e.l.g.w.0.0.q.0.3.7.q.q.0.3.3.3.3.0.3.3.3.0.0.7.3.3.3.0.q.q.0.3.3.3.3.3.2.4.4.2.2.2.2.1.&.&.1.1.2.2.2.3.3.0.j.l.l.j.i.w.",
"l.k.j.l.N.k.0.3.3.3.3.2.*.3.7.3.0.q.e.f.j.e.e.3.3.3.3.3.7.q.e.g.j.j.j.j.j.g.e.7.3.3.q.0.3.3.1.1.@.@.1.2.2.&.&.2.2.*.3.0.0.3.7.7.",
"b.M.M.N.j.3.2.2.3.3.&.&.&.*.7.q.q.k.M.N.N.n.l.j.e.q.e.e.k.n.M.n.M.A.A.A.S.A.n.l.c.c.l.k.j.e.q.7.7.q.e.e.8.1.@.@.@.&.&.*.2.&.&.2.",
"e.j.z.q.*.7.3.2.2.3.3.3.0.0.r.j.M.F.N.N.M.M.N.N.N.M.N.Y.F.N.M.M.M.n.n.k.k.j.y.k.M.n.c.M.M.n.c.j.l.n.n.l.z.e.3.2.@.@.@.@.@.O.@.O.",
"2.2.&.&.*.3.e.e.e.q.0.q.e.k.M.F.N.k.e.g.e.f.k.n.N.F.N.M.l.j.j.j.j.j.e.j.j.j.j.j.j.j.j.j.l.n.M.M.M.k.j.e.j.j.j.e.0.e.e.1.+.>.:.+.",
"2.2.&.2.q.j.k.l.k.j.j.k.b.N.Y.n.k.k.e.e.0.0.e.f.j.j.j.e.e.e.e.e.e.e.e.e.j.e.e.e.w.w.e.e.w.e.e.j.j.e.w.q.0.q.j.j.k.j.w.0.4.t.>. .",
"&.0.e.j.n.N.N.N.b.b.M.N.F.M.k.e.f.e.3.*.*.3.3.0.q.q.q.q.0.7.3.3.7.3.q.q.0.q.q.q.q.0.7.7.q.q.0.q.q.0.q.7.7.7.0.e.j.q.&.@.8.d.>. .",
"&.q.l.n.b.j.j.k.b.M.N.b.j.e.e.3.2.3.*.&.&.&.*.3.3.3.3.3.0.3.2.2.2.2.3.7.7.7.7.3.3.2.2.2.2.3.3.7.3.3.2.@.&.3.3.3.3.0.7.2.2.t.u.8.",
"2.0.q.q.0.e.r.7.0.r.r.e.7.7.7.3.*.O.+.O.&.*.*.*.*.*.&.&.@.*.3.2.&.1.1.2.2.2.2.2.@.@.@.@.@.&.1.&.&.:.&.@.@.@.@.@.2.&.7.e.7.&.2.2."
};
