/* XPM */
static char *_7e5668678924f099920e02f91a7fb98[] = {
/* columns rows colors chars-per-pixel */
"64 64 180 2 ",
"   c #8D673A",
".  c #8E6839",
"X  c #976C35",
"o  c #9C6F36",
"O  c #966E3A",
"+  c #9A6F38",
"@  c #9D7035",
"#  c #9D733B",
"$  c #A2763D",
"%  c #A5793E",
"&  c #AB7C3F",
"*  c #9D7542",
"=  c #A27740",
"-  c #A57A41",
";  c #AB7D42",
":  c #A27B4B",
">  c #AA7F48",
",  c #B07F44",
"<  c #B2813F",
"1  c #AE8145",
"2  c #AE824A",
"3  c #B38345",
"4  c #B88647",
"5  c #B58847",
"6  c #BA8947",
"7  c #B48549",
"8  c #B9874A",
"9  c #B6894C",
"0  c #BC8C4C",
"q  c #BD914F",
"w  c #AC8552",
"e  c #B58A52",
"r  c #BD8E51",
"t  c #BE9152",
"y  c #B99362",
"u  c #C08E4D",
"i  c #C2914E",
"p  c #C8964F",
"a  c #C18F50",
"s  c #C49453",
"d  c #C99754",
"f  c #C69957",
"g  c #CA9956",
"h  c #C69659",
"j  c #C99758",
"k  c #C6995A",
"l  c #CC9C5A",
"z  c #D19F5C",
"x  c #CDA05E",
"c  c #D3A15E",
"v  c #D9A45E",
"b  c #CC9E61",
"n  c #D19F60",
"m  c #CEA262",
"M  c #D4A463",
"N  c #D9A763",
"B  c #D6A966",
"V  c #DAA966",
"C  c #D5A769",
"Z  c #D9A768",
"A  c #D6A969",
"S  c #DCAC6B",
"D  c #D7B06F",
"F  c #DEB16E",
"G  c #DDAF70",
"H  c #DDB272",
"J  c #DFB877",
"K  c #DEB779",
"L  c #DEBA7B",
"P  c #E1AC66",
"I  c #E1AF6B",
"U  c #E4B067",
"Y  c #E2B16D",
"T  c #E9B46F",
"R  c #E4B573",
"E  c #E8B773",
"W  c #E5B876",
"Q  c #E9B976",
"!  c #E4B778",
"~  c #E5BA7A",
"^  c #EBBD7B",
"/  c #F0BF7C",
"(  c #EEC17E",
")  c #F1C07E",
"_  c #E5BE83",
"`  c #E7BF82",
"'  c #E5BF81",
"]  c #E6BF84",
"[  c #E3BF81",
"{  c #E9BD80",
"}  c #EBBF80",
"|  c #EABE81",
" . c #E8BF81",
".. c #EDBF81",
"X. c #ECBE80",
"o. c #ECBE82",
"O. c #EBBF80",
"+. c #F1BF80",
"@. c #E4C082",
"#. c #E7C183",
"$. c #E6C082",
"%. c #E6C081",
"&. c #E7C085",
"*. c #E7C387",
"=. c #E6C284",
"-. c #E9C281",
";. c #E8C082",
":. c #E9C082",
">. c #E8C083",
",. c #EAC183",
"<. c #EBC282",
"1. c #EAC382",
"2. c #E8C282",
"3. c #ECC081",
"4. c #EDC180",
"5. c #EEC180",
"6. c #EFC281",
"7. c #EDC182",
"8. c #ECC083",
"9. c #EEC082",
"0. c #ECC383",
"q. c #EEC283",
"w. c #EBC483",
"e. c #EBC284",
"r. c #EAC285",
"t. c #EBC385",
"y. c #EAC284",
"u. c #EBC386",
"i. c #EDC184",
"p. c #EFC384",
"a. c #EEC084",
"s. c #EBC587",
"d. c #EBC586",
"f. c #E8C486",
"g. c #EEC585",
"h. c #ECC486",
"j. c #EDC486",
"k. c #ECC487",
"l. c #EDC587",
"z. c #EFC686",
"x. c #EDC586",
"c. c #EDC281",
"v. c #EBC388",
"b. c #E8C488",
"n. c #E9C589",
"m. c #EBC489",
"M. c #EBC78B",
"N. c #EAC68A",
"B. c #E9C589",
"V. c #EDC588",
"C. c #ECC489",
"Z. c #EDC789",
"A. c #EEC689",
"S. c #EFC789",
"D. c #EDC58A",
"F. c #EFC78A",
"G. c #EEC78C",
"H. c #EEC88A",
"J. c #EFC98A",
"K. c #EDC98D",
"L. c #EFC88D",
"P. c #EFCB8F",
"I. c #F0C284",
"U. c #F1C385",
"Y. c #F0C485",
"T. c #F1C584",
"R. c #F1C586",
"E. c #F2C686",
"W. c #F2C381",
"Q. c #F5C885",
"!. c #F3C788",
"~. c #F1C88A",
"^. c #F0C88B",
"/. c #F1C98C",
"(. c #F0CA8C",
"). c #F1CB8C",
"_. c #F1C98E",
"`. c #F3CB8E",
"'. c #F4CC8F",
"]. c #EFCB91",
/* pixels */
"@.[ &.b.b.G.].].K.K._.Z.J.J.^._.'._.^.^.p.~ ~ ~ ~ ~ ^ ..I.T.!.T.T.4...^ ^ ~ ~ ~ ~ ^ ~ W ! ~ ! R R R F F R S S C A S A A A S A B ",
"~ L @.f._.v.b.K.b.&.v.Z.x.Z.x.x.e.,.,.,.4.p.T.T.4.4.^ ^ ^ ^ ~ ~ ~ ^ p.^ ~ ^ ^ ^ ~ W ! ~ ~ ! ! Y Y Y F F S S S F S A A A C M M A ",
"~ _ &.b.b.b.b.K.K.Z.Z.^.e.e.x.e.e.x.,.,.^ ^ ~ ~ 4.p.I.I.4.p.} } } ^ ! ! ! ~ ~ ^ ~ ^ ^ ~ W R R R R Y Y S S A V C A A S A A B A C ",
"] &.b.b.b.b.b.f.@._ @.Z.Z.Z.e.,.,.,.,.,.} 4.} } ^ ! ~ ~ ^ } 4.p.} 4.I.4.4.4.^ ~ ~ ! ! W ~ R R S S S S Y S Y S A A C M B A C M C ",
"L L _ _._.@.@.Z._.x.x.x.e.~ e.x.e.^ ~ ~ ~ ~ ^ ^ 4.4.4.4.p.4.^ ~ ! W ! ! ! ! ~ ~ ~ ~ ~ E R R R H R R R A A A M A S S S S A M M M ",
"@.,.~ K _ @._ ~ J ! ! ~ ,.} ^ ^ ^ ^ } p.} ~ ! ! ! ~ ^ ^ ^ ~ ^ ..4.4.4.....^ ^ ^ ! ! E E ! R A A A A V S S S S S M m M M M M M A ",
"K ~ f.J.e.,.e.Z.x.,.p.x.x.x.p.4.^ ~ ~ ~ ~ ^ } p.4.^ ^ ~ ~ ~ R H F H ! ~ W R ! ~ ^ ~ ~ Q E Q ~ ! Q R R S V V V B C S S A M M M M ",
"e.,.K K ! ~ ! K H H H H H K R ! R ~ } ^ ^ R ! R ~ ^ ^ ^ ^ ~ ^ 4.W.T.T.4.~ W ^ ^ ! ! R R R S Z B M B M B N V A S A C m m M M M M ",
"~ ~ w.w.,.,.,.,.x.x.T.T.Z.x.4.p.^ W R ! ~ ^ ~ ~ ~ ~ ~ W W W ! R R R S S R W ! R R R E ^ ^ ^ ~ ! Q ~ ! R R S A B l f c M m l m M ",
"! K K K H D H H H K R R K ! ~ ! ~ ~ } ^ ~ ~ ~ ~ W R ! W ! R R R F ~ ( ( ^ ~ ^ ^ ! R R S B B V V V M l l l c B B S R R S S S A m ",
"~ @.g.g.,.g.4.^ ~ ! ! ~ ! R G H R R S H R R R R ~ ~ ^ ( ( ( ) W.Q.T.Q R R R S S R R ~ ^ ^ ^ ! Y Y R ! Q Q R S A V z s s t s s l ",
"m C A A S K ! R ! ~ } } 4.4.4.4.( ^ ~ ~ W R ! ~ ~ ! R S A C V V C C V S S R ^ W.+.^ ! S V C B S Y F V M l l M V A A A G H F F S ",
",.~ ~ W H A S G S S A A A M M M S H R S A S ! W R F R W W W ! ! R ~ W.T.T.^ Y B N V Y R Q Q Q R S M M c S Q S B l s s s k h s t ",
"~ ^ ( 4.T.4.H A S S S S K ~ ^ 4.^ W W ~ W.W.~ W ^ ^ W.^ ~ ^ ^ ^ Q R F S S F R ~ ^ ) ) E F S V S R ^ ~ Q ! c l B Y S S B l x M M ",
"x m M A A R ( 4.( ^ ^ ^ ! H S A C M M M M A S S B M M M M M M V S R ^ ^ W R S A V B B S R R Q ! S B M c c A R Y x f k m A S M l ",
"A S F A m l x x l l l m C A S ~ ~ ~ ~ ~ ~ ~ ^ ^ ^ ~ Q Q Q Q ! Q ~ E R Y Y S A S R Q R R S V M f g l l l B M s s M S M f s g B M ",
"( ( ( ( ~ R S A S F R ^ ^ ~ ~ S B C S R R S S A S Q ) ^ ^ ^ ) ^ Q R R Q ^ ^ ^ ^ ^ R Y R R Y S I R Q Q ^ E S M A R M M S S S h s ",
"M B B C H ~ ~ ^ ~ R S m l l l x M m M M M M S F Y V M c M M M M S Y Y V M c M M c c c l l M V A S S V M M M S S f s r 0 0 t s h ",
"k k k s k k l k k l m M B S Q ~ ^ ^ ^ ^ ^ ^ ^ ) ^ ^ E Y S S N M M c z M B c M V Y ^ ^ ^ Q Q R Y B g s s s s i 0 c S A A A S A A ",
"~ R S A m l l M F W ^ ^ ^ ~ Y S S S A V V B B B M S E ^ ) ( +.) ^ Q ^ / ^ ^ ) ) ^ R S M M c c M M B A S R Y S B c s 0 s l g s 0 ",
"S W ! ! ~ ~ ~ ! S C M M M f h s k f l x l l l M C M c c M M S S I Y I S A S S S M l f l l z M V Y R R ! R S S S A B f s 0 5 7 9 ",
"s f l l x f s s s s t t s f M A S ~ ~ Q E Q ^ W.) ^ Q R V l g g g g l l f l l l l c A Q ~ ~ Q R M s d g d s s q 0 f B S S A S A ",
"l t q s s l V Y R Y S Y R ~ ^ ~ ! S A S R W ! I S S Y R R Q R S N N S V M M M I Q ^ ^ R V M M M V B l s s u q s c V M s t k b k ",
"M A A S R R H S S S R R I V M c f s d g l c l g f g g g g c S E ^ ^ ^ E ^ ^ / ^ R S N l l g s s s l S R R R R R R B l l s 9 7 3 ",
"S F H A l t t t t s f f s s s s z B V c f g l M S Y R R S v g g l l c M M V V M l f f l g f c N M c g g l z M l s 5 3 9 k M b s ",
"s t q 0 s k k k s t 0 t h b B R Q ! ! Q Q Q ^ ^ ^ R S N S T R V z g s s s d s s s s s f V R Q Q R Y S N z s 0 9 0 s k k s s f M ",
"5 q M F R R R R R F S R W ! R A l l M V R R A l s s i s s l M Y Q R Y I M l l c M Y R R Q Y M z l f f l l B Z S S S R S A A s 7 ",
"C C m M M l f l C Y Y A M f s s s s s d d s s g z M S I S V z d g z c V R Q Q Q R S V S M l f s s 0 0 4 4 0 0 i s s s s 0 0 s k ",
"B A l 5 3 7 9 t s k s s 0 s z c z l l f l N R Q E R Y I I Y Y V z d d d d l M N M M M l f s s r 4 i g l V V c s 4 1 1 ; ; 7 r M ",
"s s B B l m C l s 0 0 s A Q Q Q E E Q Q E R V M l l l g s i p g N Y Y Y V M z s s s h h 0 0 0 s M I R E S M M B M b k k b C m s ",
"9 t s B R Y S Y A V Y R V l f s f l z l f s 0 0 0 0 0 0 d c V v g s s l M M h r r s s s s M I T R V l d s r r t s b C A M b h t ",
"s k k l s s s M Y I M s 0 i s f g g d i s a a s s l c S R Y V V S l 0 0 4 4 s f f M B M R E Y V v c l 4 3 3 4 7 7 7 4 9 7 3 3 ; ",
"G S m t 7 r s s 0 0 l V Y I Y S Y Y Y Y Y Y I Y R R E Y M g s s l V S c l M S R R E R R V c l d s g j l g g l l s 0 3 1 1 1 3 ; ",
"0 4 5 5 t b M l B A S A B M c z l z N V V I I V v z z d u u 0 0 i d N Y I S S B M c c l l s s t t 0 9 s N I I Y S B M l l b m b ",
"s i s B R ! S A M k s s s s r s s s g f g g s s s s u 0 d c c l s u i s f f f f h s s r 0 0 0 9 9 9 4 4 0 s f l h s f l B B b l ",
"B S R B i 6 4 4 4 4 4 0 0 0 r 0 0 s i 0 0 0 4 4 4 0 l I E R Y Y Y M g s s s s a 0 4 5 7 5 9 9 t r s j s 0 0 4 0 9 7 4 4 9 0 9 7 ",
"s h t s s s l l z z c c M V V S c g g s 0 0 0 u d g g z z g g l M N M i 4 9 0 0 0 s s s s l M M V Y T Y V M g 7 ; ; ; ; ; ; ; ; ",
"1 9 t l B A V S Y R E E E R S S T E T I V V P R E R S l u 0 0 0 0 0 0 d s h f z B S Y I R R R R Y V c z z z n s 5 s h s 7 - $ - ",
"s s h s t s s s g l z z l M V I I U U T T T U P V N V V g 0 0 0 0 s M I S Y R R R I M N C M c l s s i a u 9 4 s N I V M b h 9 7 ",
"0 9 5 7 7 5 5 0 4 0 u s s d c c z c c c c g g d s s i d N V V V S I V c M N N l d g s s s s s 0 r 0 9 9 7 4 9 f l g r 4 9 s l b ",
"7 7 7 7 4 0 0 0 0 0 a 0 s s s s s s s 4 4 4 0 0 0 0 u M I Y Y I V z g g j s f f 4 7 7 7 9 7 7 7 7 1 1 1 3 7 c S l 4 & ; - 1 7 t ",
"k k l M V V V S V M z f s 0 s i 0 0 u s 4 4 4 4 0 s S N g g g d s i 0 0 r s s s l s 7 7 7 9 7 7 7 7 7 9 r z S s 0 s 1 - = $ % - ",
"M C V N M N S I Y T T Y M s i 0 0 0 i l V M g c I R B s s s 0 0 0 4 0 9 7 9 9 0 r j f g s s g g s g l c N I s 1 1 7 h h r 7 ; $ ",
"l s s s s l l l c c N N V V M c c g s i p N T T N i 3 7 4 4 6 6 4 s l l h r 0 r 0 s S I I I I Y I I Y R Y l 7 ; ; % 7 h h l k r ",
"r r r t s i s s s g l N Y Y T T U V v z V N N v z u 4 0 u i i d c I I S S V M z l V M z N N N M c z l f s 7 ; 7 4 3 ; ; ; ; 7 r ",
"1 7 7 7 7 5 9 5 0 s s s g z v I U U U I N g d s g N V V V V S Y Y N l l z S S I Y M s u u i s s 0 4 4 7 3 3 0 M M M h 3 $ $ $ $ ",
"; ; 1 3 1 1 7 7 9 0 s s s d g d d g z d i u 0 0 s z N I I Y I M g 0 a r s d l l f s s 8 7 7 9 7 3 3 1 1 3 0 M l s s f h 9 % - % ",
"1 5 0 0 0 r 5 7 7 7 7 4 4 0 s u 0 4 0 u 0 4 4 4 0 i s l g d s 0 4 4 4 7 9 0 r s 0 8 9 9 9 1 ; ; - ; ; 1 u M g 0 4 4 7 0 t t r r ",
"f c c c c l l g s s 0 7 4 7 7 7 3 3 4 4 4 u u 4 4 7 4 0 0 4 4 4 4 4 0 0 5 7 7 3 3 7 9 s 7 7 3 1 7 4 0 s V l 4 3 1 1 ; 7 9 r r e ",
"l l c N V V V N V N g 0 4 3 7 3 3 4 0 g c c c g s 4 3 3 4 3 3 4 g M B M s 5 1 ; 1 9 f s 0 s s s 0 d M S M 4 ; ; = $ ; ; ; - $ o ",
"4 0 s s g M I T P z g g g s i u u g V U U P I V c d i 0 6 0 s M S V V N B l s s s B S V V N c c c M z s 3 % $ = = # # # $ # + # ",
"7 3 9 0 0 0 d d g v P P N v v v I U P v c c v V P V N M M V I V l s s s f M N V S B l z c N I S V c i & % ; - - = = = $ $ = > e ",
"; ; ; 3 9 0 4 3 i c V Y I P P I N d s s 0 i s d z V P I I N l s s 0 9 r 0 r f l l s 0 4 0 s s g u 0 0 0 4 0 s r 9 7 1 ; - - = : ",
"- - ; 1 3 7 4 f M g s p p d g g g s 4 4 3 4 0 0 s d g z d 0 4 4 7 7 3 3 3 9 9 9 7 7 9 7 3 7 9 9 7 7 1 4 s l n M l s 0 r 7 1 - # ",
"3 7 3 1 3 7 h 0 4 4 4 4 4 4 4 0 4 4 7 , 3 3 3 3 7 9 0 0 4 4 3 3 3 ; > ; ; 1 1 3 2 1 ; ; - ; 1 ; - - % % 1 9 0 s s l l s s s 7 $ ",
"0 0 4 9 s l s 5 3 7 7 3 1 3 4 7 4 ; ; 3 ; 3 ; ; ; 1 4 3 & 3 ; 3 7 7 3 1 ; 1 ; ; - ; ; - - - - $ $ = = % - ; ; ; ; 4 d f f s t 9 ",
"g d s l M f 7 1 1 ; ; % & ; 1 ; 3 4 4 i s 0 9 , ; ; ; & 3 4 0 a s s s s s s 9 3 1 ; 7 3 ; ; % % # # % - - $ $ - - % ; 3 7 ; 3 2 ",
"z c M M s & & ; ; ; % % $ % 3 4 4 d M N N c f s 0 4 4 u g z M c M N B B N B M l l f l f s 9 7 1 1 7 r 9 2 % $ # $ $ $ = - = = - ",
"9 t h 7 % 1 ; & ; ; ; ; 3 4 4 s M S V N c M M M N c N P S N M M M c c g j s a f M n n n M z f s l z M l h 9 ; - # @ # # # # # # ",
"% % % $ & ; 9 0 4 7 4 4 0 g c V N d u i 0 i d z N P N c l s s s s s a a a s s s s s s s l c M M c g i 0 s s s 9 7 r e = O : * O ",
"- % % & 4 s g l d s d d z N P z d d 0 9 4 4 4 a s s s 0 4 0 r 0 4 9 0 0 s r 9 r 8 9 r r 4 9 0 s a 4 4 7 3 7 s h f s 9 2 : w :   ",
"$ 3 9 s c M N M c z c N V c d u i 0 , ; & ; ; 4 7 7 7 4 7 3 ; ; 3 ; 7 9 3 7 7 9 9 7 3 1 7 7 3 9 7 7 7 3 1 3 7 r s 7 $ # w y : . ",
"$ 5 b c c s s d l c N z s 0 0 3 & & - % $ % - ; ; ; ; ; 1 ; - - - - ; 2 3 1 3 ; ; - - - ; ; 1 1 1 ; - $ % ; ; ; 1 7 7 - = w e 2 ",
"- 7 4 3 3 0 4 < 3 6 6 0 3 3 3 1 % @ X @ $ - ; & % % - % $ - ; - = = = - - ; - - # $ # $ # $ % $ $ $ $ $ # # # $ % % 2 e 2 = = - "
};
