/* XPM */
static char *_b9bc11f38824836b75eb6c49b038e95xtRoSlufz03Omjsh[] = {
/* columns rows colors chars-per-pixel */
"64 64 239 2 ",
"   c #010101",
".  c #060809",
"X  c #170D02",
"o  c #09161B",
"O  c #111315",
"+  c #241B0F",
"@  c #0B1B2D",
"#  c #162A39",
"$  c #142B37",
"%  c #282C34",
"&  c #35322F",
"*  c #3D2005",
"=  c #4D351A",
"-  c #46382E",
";  c #574936",
":  c #55452F",
">  c #674B27",
",  c #78562C",
"<  c #644D35",
"1  c #6B5539",
"2  c #795B34",
"3  c #6D502D",
"4  c #7F6239",
"5  c #1B3548",
"6  c #042D58",
"7  c #1B3858",
"8  c #122F50",
"9  c #21374C",
"0  c #253C57",
"q  c #3A3F42",
"w  c #1A3C62",
"e  c #003C7D",
"r  c #003972",
"t  c #0B3764",
"y  c #503E4F",
"u  c #1C4751",
"i  c #26445B",
"p  c #27465C",
"a  c #394756",
"s  c #3A484D",
"d  c #1E4267",
"f  c #2B4564",
"g  c #2C4A6B",
"h  c #284866",
"j  c #344B67",
"k  c #285769",
"l  c #2B4C72",
"z  c #314D74",
"x  c #2B5D72",
"c  c #2D5479",
"v  c #345579",
"b  c #36556D",
"n  c #2C6B7C",
"m  c #296375",
"M  c #306977",
"N  c #494947",
"B  c #5A4A48",
"V  c #535554",
"C  c #685748",
"Z  c #725C46",
"A  c #66525C",
"S  c #674F54",
"D  c #796244",
"F  c #6B6251",
"G  c #6A5667",
"H  c #6C5971",
"J  c #765C78",
"K  c #6C5664",
"L  c #7A6972",
"P  c #4E636B",
"I  c #825E2F",
"U  c #876437",
"Y  c #956D39",
"T  c #9D733E",
"R  c #9B763D",
"E  c #A2763D",
"W  c #AB7A3C",
"Q  c #A6773B",
"!  c #866B48",
"~  c #9E7540",
"^  c #977748",
"/  c #8F7451",
"(  c #A17741",
")  c #A57A43",
"_  c #AA7E44",
"`  c #A77E48",
"'  c #836A76",
"]  c #BB833D",
"[  c #AD8146",
"{  c #AD8349",
"}  c #A78247",
"|  c #B38345",
" . c #B3864A",
".. c #B6894C",
"X. c #BB8C4D",
"o. c #BC8946",
"O. c #A88858",
"+. c #BC8E51",
"@. c #B38A54",
"#. c #BE9153",
"$. c #BA935C",
"%. c #BE904F",
"&. c #B69663",
"*. c #BFA16B",
"=. c #C18D4B",
"-. c #C4914D",
";. c #C9934C",
":. c #C39453",
">. c #CA9753",
",. c #CB9A56",
"<. c #C5995A",
"1. c #CC9C5A",
"2. c #C49658",
"3. c #D19E5A",
"4. c #D49E56",
"5. c #D59B4F",
"6. c #CFA15E",
"7. c #D4A25D",
"8. c #DAA65E",
"9. c #DCA157",
"0. c #E2AA5D",
"q. c #CB9E61",
"w. c #CEA363",
"e. c #CAA46A",
"r. c #D3A564",
"t. c #D9A761",
"y. c #DBAA64",
"u. c #D6A969",
"i. c #DCAD6B",
"p. c #D5A867",
"a. c #DDB06E",
"s. c #DEB272",
"d. c #DEB97A",
"f. c #D3AC71",
"g. c #E2AD65",
"h. c #E4AF67",
"j. c #E5B26B",
"k. c #E8B46B",
"l. c #F3BB6D",
"z. c #E3B574",
"x. c #E6B877",
"c. c #EABA75",
"v. c #E6BA7A",
"b. c #EABC7C",
"n. c #E8B775",
"m. c #F0BD75",
"M. c #F2C27D",
"N. c #EDC07E",
"B. c #003E80",
"V. c #004284",
"C. c #004489",
"Z. c #0D4A89",
"A. c #175290",
"S. c #2C5584",
"D. c #355983",
"F. c #395B85",
"G. c #385C8A",
"H. c #2D5C94",
"J. c #2C6E82",
"K. c #386589",
"L. c #2D7285",
"P. c #31778A",
"I. c #3C6393",
"U. c #38659A",
"Y. c #347D93",
"T. c #2C629B",
"R. c #396CA6",
"E. c #3E71AC",
"W. c #3D73B2",
"Q. c #426A9C",
"!. c #7E6486",
"~. c #456EA4",
"^. c #4573AB",
"/. c #4774A9",
"(. c #4A7AB4",
"). c #4C7EBA",
"_. c #4579B5",
"`. c #785F81",
"'. c #846786",
"]. c #8B6D95",
"[. c #94739B",
"{. c #926F92",
"}. c #9A79A3",
"|. c #A27DA9",
" X c #A27195",
".X c #358599",
"XX c #2F8091",
"oX c #368AA3",
"OX c #3A95AB",
"+X c #3C9CB5",
"@X c #2B87A0",
"#X c #3DA2BB",
"$X c #418297",
"%X c #4E81BD",
"&X c #5183BE",
"*X c #42A5BD",
"=X c #3BA6C2",
"-X c #4E83C1",
";X c #4D86C9",
":X c #5185C3",
">X c #548ACB",
",X c #5992D3",
"<X c #42AAC5",
"1X c #45B2CD",
"2X c #47B8D4",
"3X c #4ABFE0",
"4X c #4BC7E8",
"5X c #4ECEF2",
"6X c #4BD8FD",
"7X c #51D6FD",
"8X c #53DCFE",
"9X c #51D3F5",
"0X c #50CCE8",
"qX c #56E3FF",
"wX c #59EBFF",
"eX c #58E7FF",
"rX c #58EDFF",
"tX c #4AC1DD",
"yX c #AC83AC",
"uX c #A680AB",
"iX c #B186AF",
"pX c #AC84B1",
"aX c #B48AB5",
"sX c #B88CB7",
"dX c #B68BB7",
"fX c #BC90BC",
"gX c #9FA0A2",
"hX c #EABF81",
"jX c #E5BE81",
"kX c #ECC283",
"lX c #EBC589",
"zX c #EEC98D",
"xX c #E5C183",
"cX c #F6C986",
"vX c #F5CE8F",
"bX c #C294C4",
"nX c #D5D5D7",
"mX c #FDFDFE",
"MX c #E4E6E8",
/* pixels */
"xXv.xXlXlXlXzXzXzXzXzXlXlXlXlXzXzXzXzXzXkXv.v.v.x.x.v.b.kXkXzXkXkXkXb.b.b.v.v.v.x.v.v.x.x.v.x.z.n.p./ / O.7.j.p.p.i.p.p.p.p.p.p.",
"v.d.xXlXzXlXlXzXlXjXlXlXlXlXkXlXlXkXkXhXkXkXkXkXN.b.b.v.v.b.v.v.v.b.b.b.b.b.b.b.b.x.x.x.x.x.z.i.j.D ].[.'.K ! y.j.p.p.p.r.r.r.p.",
"d.jXxXlXlXlXlXzXzXlXlXzXlXlXlXlXlXkXhXb.b.b.v.v.b.kXkXkXkXkXb.b.b.v.x.z.x.v.v.v.v.b.b.v.x.z.s.z.6.A sXiXaXaX].C #.j.p.p.p.r.p.r.",
"xXxXlXlXxXlXvXv.s.lXjXkXlXkXkXhXhXhXkXkXhXhXb.b.v.z.v.v.b.b.b.kXb.b.kXkXkXkXb.v.x.z.z.x.x.z.s.j.#.K aXyXyXyXaXuXS #.u.r.p.r.r.p.",
"d.v.jXlXvXs./ L B O.vXlXkXb.kXkXkXb.x.v.v.v.b.b.kXkXkXkXkXb.b.x.z.x.x.x.x.x.v.n.v.v.x.x.z.z.s.z.<.K aXyXyXyXyXiXpXB 1.i.r.r.w.w.",
"xXxXd.b.*.K ].pXpX; s.b.hXhXb.v.b.jXb.kXb.v.z.z.x.x.v.b.b.v.b.hXkXkXkXhXb.b.b.v.z.z.x.x.z.s.u.i.<.A aXyXyXyXyXyXaX[.1 y.r.r.r.p.",
"d.d.vXe.G pXaXyXsXA &.vXlXkXkXkXv.v.v.z.x.b.b.kXkXb.v.v.v.v.z.a.i.a.z.v.x.z.x.n.v.v.v.x.x.z.n.n.p.S aXyXyXyXyXyXyXsXG ) i.w.r.r.",
"kXlXu.K pXyXyXyXsXJ ^ v.a.s.s.z.z.v.b.b.v.z.z.x.x.b.v.v.b.v.b.hXkXkXkXb.v.x.b.b.z.z.z.z.j.i.p.p.6.C pXyXyXyXyXyXyXiX|.C t.r.r.w.",
"d.cX/ [.aXyXyXyXaX!./ vXlXkXhXkXb.z.z.z.v.b.v.v.v.v.b.b.v.z.n.n.z.z.i.u.z.x.z.z.z.z.x.b.b.v.n.x.n.Z |.yXyXyXyXyXyXyXdXG { p.q.r.",
"N.e.L aXyXyXyXyXaX].D b.s.x.z.z.v.v.b.b.v.x.x.x.x.z.a.p.y.M.r.@.z.v.b.hXb.v.b.v.z.z.j.u.p.p.y.p.y.Z }.iXyXyXyXyXyXyXaX].! j.r.w.",
"kX&.'.sXyXyXyXyXaX[.Z N.s.z.i.s.s.s.i.a.z.z.z.s.z.vX^ o a D ; - cXcXM.c.n.z.i.u.a.z.x.v.b.b.z.i.c.! ].aXyXyXyXyXyXyXyXuXB :.2.<.",
"w.w.Z }.aXyXyXyXiX}.C kXb.kXkXkXb.b.b.v.x.s.z.cXz.; N $ R.H.G.I.; ! ^ { ,.j.cXcXb.n.z.i.y.p.p.y.c.! '.aXyXyXyXyXyXyXyXaXA 1.j.i.",
"xXcXi.B yXyXyXyXiX|.C i.p.r.r.r.p.a.z.i.p.n.c.q.1 @ S.%X(.%X%X).^.U.U.D.b F / X.h.j.i.z.x.n.n.z.j.^ J aXyXyXyXyXyXyXyXaXG ) 1.#.",
"v.O.F L yXyXyXyXyXuXB u.z.v.b.N.b.x.z.M.cX$.C z R.&X%X(.(.(.(.(.(.%X%X%X)._.U.b F e.cXn.i.i.y.y.m.@.H sXyXyXyXyXyXyXyXsXH ~ u.r.",
"^ H |.aXyXyXyXyXyXyXC z.x.a.i.p.p.r.i.:.< c W.-X).(.(.(.(.(.(.(.(.(.(.(.(.(.).;XE.5 = 3.m.z.x.z.j.} G sXyXyXyXyXyXyXyXsXH } y.1.",
"^ [.aXyXyXyXyXyXyXiXB :.p.p.i.x.v.cX@.j W.%X(.(.(.(.(.(.(.(.(.(.(.(.(.(.(.(.(.^.g +X@Xa ) j.r.1.1.` G dXyXyXyXyXyXyXyXaXG ) y.6.",
"O.{.aXyXyXyXyXyXyXaXA p.M.b.x.i.j.U @ h Q.).(.(.(.(.(.(.(.(.(.(.(.(.(.(.(.(.%Xh <XwXqX8X.X! k.i.c.<.A dXyXyXyXyXyXyXyXaXA :.1.#.",
"^ {.aXyXyXyXyXyXyXaXG { r.1.<.y.U J.5X2Xp Q.%X(.(.(.(.(.(.(.(.(.(.(.(.(.(.).~.x qX9X9X7XwXOXU j.j.+.G aXyXyXyXyXyXyXyXpXB X.2.2.",
"^ '.aXyXyXyXyXyXyXsXH ^ a.p.M.@.oXwX8XqX4Xi ).(.(.(.(.(.(.(.(.(.(.(.(.(.(.%XF..XqX9X7X9X9XqX@X~ c.R H sXyXyXyXyXyXyXiX[.D k.y.y.",
"p.' aXyXyXyXyXyXyXaX!.^ cXb.4.M qX9X7X9XqXL.G.%X(.(.(.(.(.(.(.(.(.(.(.(.(.-Xz +XqX9XqXqXqXqXwXL.=.^ `.aXyXyXyXyXaXaXbXJ Y 7.+.+.",
"y./ pXyXyXyXyXyXyXiX[.1 t.,.F 4X8X7X7X9X8X<Xg -X(.(.(.(.(.(.(.(.(.(.(.(.(.-Xh <XqX8X*Xk p m <X6XV < }.iXyXyXyXyX'.J J B  .@. .@.",
",.! [.iXyXyXyXyXyXyXpXB :.( OXrX8X9X8XqX8X5Xh (.(.(.(.(.(.(.(.(.(.(.(.(.(.%Xf 1XwXm           k =Xy sXyXyXyXyX|.& R { 1.i.y.y.y.",
"w.} H dXyXyXyXyXyXyXsXJ ) L 6XOXu o o m 5XqXx Q.).(.(.(.(.(.(.(.(.(.(.(.(.-Xi 2X*X  V nXgX.     k .X{.aXyXyXyXsXJ U h.:.+.:.1.:.",
"w.y.! }.iXyXyXyXyXyXyXaX- oXP.    O &   $ qXY.F.%X(.(.(.(.(.).).).).(.(.(.-Xf 2X5   MXmXmXO       oXH aXyXyXyXyXfXB [ 1.#...{ { ",
"i.z.1.K aXyXyXyXyXyXyXaXP XX    . nXmXgX  L.#Xz -X(.).%X).(./.~.Q.~./.).).%Xg OXo   L nXA         L.$X XpXyXyXsX].; { ..:.7.1.:.",
"#.+.:.U '.sXyXyXyXyXiX XM u       gXmXnX  o OXg %X).~.c d t t t t t t h I.>Xl n .                 x #XJ dXuXsX].; #.1.2.:.:.1.7.",
" .+.w.j.! ].sXyXyXyXsX'..X#       . A &     n l :Xv 6 r e C.C.C.C.C.C.e 6 G.D.k .                 P.#Xy fXsX!.< t.j.h.i.y.r.:. .",
"p.r.6.r.1.1 ].sXyXyXdXJ #X#                 u v G.6 C.C.C.V.V.V.V.V.V.C.C.t j k .                 4XJ.& dXA > :.:.#.:.#.+.+.#.<.",
"r.p.1. . . .< `.dXyXdXA +Xx         .       # k w B.V.V.V.V.V.C.V.V.C.V.C.e 5 n o               P.9X5 % C [ y.:.{ _ } _ ` { +.3.",
"#.2.r.r.1.r.t.U A [.bXA u 0X                u x 7 V.V.V.V.V.C.C.V.C.V.V.C.r 9 J..X          O .X0Xp G.; 0.y.7.r.7.1.<.:.1.r.1.:.",
"..#.:.r.j.j.i.c.:.Z J G . 1X+X              oXx 0 r C.V.V.V.V.V.C.V.V.V.C.6 Q.f .XXXu $ 5 m OX.X0 Q.R.3 3.X.+.+.:.1.t.t.r.1.:.#.",
"#.<.<.1.:.:.:.6.j.k.{ : 0 0 OX*Xu o     o n OXf /.6 C.V.V.V.V.V.C.C.V.C.e w ).(.z x n J.J.x l G.(.>Xl I  .{  . . . ..... .{ { ` ",
"i.y.6.+. .+.#.:.X.X.r.h.V _.g x Y.P.n x n x f ^.%XF.6 C.C.V.V.V.V.V.C.e 8 ~.).%X>X).I.g 0 h l F.-XS.< 3.:.,.1.1.:.X.{ _ ` { { } ",
"+. . ...#.1.7.1.r.y.y.j.U S.,X^.F.0 0 f D.~.>X-X%X:XI.t r V.C.C.C.C.r d (.-X^.G.g p x oX2X8XqXm % 2 =.:.8.h.h.h.y.t.7.1.1.1.7.1.",
":.#.:.r.j.j.y.y.7.:.:.:.X.: S.^.h P.Y.L.x h h z F.I.^.Q.l w t 6 6 7 g D.z p h n +X5XwXrX6X=XM Z W :. . .X.:.,.1.:.:.,.3.7.r.1.1.",
"r.i.i.p.#... . . . ...X.+.X.4 & u 4XqXrXqX9X2X+X.XL.x x x h p # 5 m L..X=X5XqXrXqX4X#XM V U W >.#.+.:.#.X.X. .X... . . .X.+... .",
":.:.+.:.:.:.1.1.1.1.3.7.7.y.j.y.` 1 V M OX1X5XqXwXwXwXwXqXqXqXqXqXqXqX8X5X1XOXP.P.x   * 9.8.r.r.y.h.j.h.y.7.,. ._ _ _ _ ) ` ` ` ",
"{ ..+.1.r.y.t.y.h.j.k.k.k.j.y.y.m.l.h.=.X # 9 $ x n L.Y..XoXoXY.Y.L.L.J.P..X+X2XtXp Q.0 ..c.k.j.h.y.3.3.1.3.3.:...:.:.:.{ ) ( ( ",
"#.:.:.:.#.:.:.:.:.1.3.3.1.7.y.h.h.y.l.D I.:X-Xf L.0X2X1X1XOX.X2X2X4X5X7X8XqXqXwXm F.>XW.; 8.7.,.:.:.:.X.X.X. .=.t.h.t.7.1.:.+. .",
"X..... . . ...X...X.X.:.:.:.7.7.3.8.;.a -X(.(.(.i 7X8X8XwX+Xm 9XqX8X8X7X7X9X8X1X0 -X^.-Xf Q :.+.X.X..... .| ..,.,.,.X. .X.:.1.1.",
" . . . .X.X.X.X.X.+.+.X.+.:.:.:.:.1.Y v %X(.(.-Xf +XqX9X8X3Xn 8X9X7X7X7X7X9XqXn G.%X(.%XD., X.{ { [ _ [ [  .7.y.1. .) ) ) _  .:.",
">.,.1.7.t.t.t.y.t.7.3.1.:.+.+.+.X.>.2 U.%X(.(.%XG.J.qX9XqX1X.XXXOXqX7X7X7X8X5Xp (.(.(.).U.< X.{ | |  .X.+.3.y.:.X.:.[ ) ) ( ) ) ",
"8.r.t.r.7.t.y.h.j.j.j.h.t.:.:.X.X.=.- R.(.(.(.(.^.p 8X7X7X7X2Xn 1X2X4X8X9XqX#Xf -X(.(.(.E.& ,.:.:.,.1.3.8.h.:.[ _  .:.:.X. .` ~ ",
",.:.:.:.:.,.,.3.7.7.8.8.y.y.8.7.7.X.% (.(.(.(.(.).i 4X8X7X7XwX1XY.P.4X8X9XqXJ.G.%X(.(.(.(.@ :.k.g.h.h.j.h.,. ._ ) )  .:.:.,.:.+.",
"X.X.+.X.-.-.:.:.:.,.1.8.h.j.k.j.l.Y # :X(.(.(.(.-Xf <XqX7X7X7X8X<X2X8X7X7X7Xh ^.(.(.(.(.&X@ U h.1.3.,.>.:. ._  ...| _ _ _ _  .X.",
"[ { {  . .......X.+.:.:.,.3.8.g.l.: 8 :X(.(.(.(.-Xz oXqX7X7X7X7XqX8X7X7X8X4Xi ).(.(.(.(.%X7 = >.X.X... .[ _ X.7.3.3.:.{ ~ T ( ~ ",
"_ ) [ [ [ [ { |  .X.:.:.:.:.>.>.-.% l %X(.(.(.(.%XF.Y.qX7X7X7X7X7X7X7X7XqX+Xg -X(.(.(.(.).l % Q  .[ [ _ _ X.7.,.:.>.,.:...) ) ( ",
"{ ..X.X.X.X... . . . ...X.X.X.;.^ 5 z -X(.(.(.(.%XI.n qX9X7X7X7X7X7X7X7XqXY.v -X(.(.(.(.%Xz 0 , | ) _ _ X.7.,.X. . . .X.+.:.+.+.",
"1.3.7.7.7.3.,.,.:.#.X. . .X...o.C 7 v -X(.(.(.(.).Q.m qX7X7X7X7X7X7X7X7XqXm I.%X(.(.(.(.%Xz c ; X._ X.:.t.1. .[ [ _ _  ...X.X...",
"1.1.7.8.y.y.8.8.y.g.4.o.W Q W W V h v -X(.(.(.(.).~.k 8X7X7X7X7X7X7X7X7X8Xh ^.).(.(.(.(.-Xz G.& ] 4.g.h.3.| _ ) ) ( _ ) _ ) T Y ",
"X.X.:.-.,.7.g.l.y.` 1 V a a s & I.g D.%X(.(.(.(.(.^.h 7X7X7X7X7X7X7X7X8X4Xp ).(.(.(.(.(.-Xh I.I.N Z E ;.X.( T ( ~ T T ~ ~ ~ Y T ",
" .| X.X...:.4.U X   8 c _.;X)._.-Xi D.%X(.(.(.(.(.(.p 5X8X7X7X7X7X7X7XqX<Xf -X(.(.(.(.(.-Xf G.:X_.R.c q 3 _ _ _ ) ( ) T ~ ( _ ..",
"_ _ _ _ X.2 & l 5 F.^.v . 5 %X(.-Xi v -X(.(.(.(.(.).p 4X8X7X7X7X7X7X9XqX.Xz -X(.(.(.(.(.-Xf I.).(.(.>X;XS.- |  ...X._ ) ) ) ) ) ",
"Q ) _ _  .X @ >X:X%X%X:X9 o I.).-Xf v -X(.(.(.(.(.-Xi 1X8X7X7X7X7X7X9XqXn I.%X(.(.(.(.(.%Xi Q.).(.(.g 0 0 8 & X + _ ,.X. .[ ) T ",
"| | [ [ | s _.(.A.Z.A.^.:X^.i (.-Xg l -X(.(.(.(.(.-Xf #XqX7X7X7X7X7X7X8Xk ~.).(.(.(.(.(.(.0 ^.(.%XI.    I.&X_.0 g i > ` >.+. .( ",
"X.X.X.:.> 7 >XA.e V.e A.(.%Xf U.:Xz f -X(.(.(.(.(.-Xz +XqX9X7X7X7X7X8X5Xp (.(.(.(.(.(.).^.0 ).(.^.# D.U.%X(._.:X>XI.  : 8.:.:...",
",.>.:.8.= # :XZ.B.V.C.C.^.:Xl I.:XF.0 -X(.(.(.(.(.-Xz n qXqXqX8X8X8XqX4Xp %X(.(.(.(.(.-Xv g %X-Xg f >X%XR.Z.V.Z.R.&Xc 3 =._ [ [ ",
"4.7.7.y.Q z :XT.e B.e Z.(.%Xh U.%X~.# ).(.(.(.(.(.%Xv 9 k .X*X1X2X2X2X.Xf -X(.(.(.(.(.%X9 Q.(.%X9 I.%XE.V.B.C.B.Z.%XI.+ T ( ( ) ",
"X.:.:. .W ; R.&XR.A.A.^.(.(.0 ).%X>Xf g :X(.(.(.(.-Xg S.H.h 7 w d h l # g -X(.(.(.(.:XI.i %X(.%X5 I.&XR.B.C.C.B.Z.:Xg   U T T Y ",
") ) E E ) Q N U.).-X-X)._.7 l R.G.D.j + D.:X%X(.)._.% U 4 D D Z C C C : j :X(.(.(.-XR.# E.-X^.:Xf v :X(.A.B.e Z.R.:Xc , ~ ^ ~ Y ",
") ) E )  .:.;.U V a a a N = Z 2 Y Q Q o.> 7 U.E.~.s + : >.-.;.;.=.=.;.> o R.%X_._.v - : N a 9 f 7 8 ).-X&X^.E.).-XS.3 X.) O.^ U ",
"E | X.:.3.7.8.0.5.;.;.5.0.0.4.>.>.-.[ | ,   3 ;   ,  .3 _ _ _ _ _ [ T + , ; @ q O X o.X.| Q Y I 3 = s D.U.U.U.G.a 2 W T { &.` U ",
"E  .,.3.4.:.:.:.,.7.8.3.:.X..._ Q W Q E U U | | = U | | | _ ) ) ) ) `  .:.Y X Q I > _ ( ) _  .X.|  .E I 3 3 3 I Q X.[ ) ( O.@.{ ",
") |  . .| X...[ | X.X.X.[ [ [ _ Q Y Y Y E _ Q ) _ Q E T T ) _ ) E ( ( ( ) ~ Y ) ( _ T T T E ( T T T ( ) ) ) _ _ ) T [ X.[ E ) ) "
};
